# Blender v2.78 (sub 0) OBJ File: 'ghost-train-build-kit.blend'
# www.blender.org
mtllib door-left-NS.mtl
o door-left-NS_Cube.035
v 0.049544 -0.000000 1.495000
v 0.049544 -0.000000 0.012386
v 0.049544 2.972672 1.495000
v 0.049544 2.972672 0.012386
v -0.049545 2.972672 0.012386
v -0.049545 -0.000000 0.012386
v -0.049545 -0.000000 1.495000
v -0.049545 2.972672 1.495000
vt 0.5000 0.5000
vt 0.7500 0.5000
vt 0.7500 0.0000
vt 0.5000 0.0000
vt 0.5000 0.5000
vt 0.5000 0.0000
vt 0.7500 0.0000
vt 0.7500 0.5000
vt 0.5000 0.5000
vt 0.5000 0.0000
vt 0.5254 0.0000
vt 0.5254 0.5000
vt 0.5000 0.5000
vt 0.5254 0.5000
vt 0.5254 0.0000
vt 0.6387 0.0000
vt 0.6387 0.5000
vt 0.6074 0.5000
vt 0.6074 0.0000
vt 0.5283 0.5000
vt 0.5283 0.0000
vn 1.0000 0.0000 0.0000
vn -1.0000 0.0000 0.0000
vn 0.0000 1.0000 0.0000
vn 0.0000 -1.0000 0.0000
vn 0.0000 0.0000 1.0000
vn 0.0000 0.0000 -1.0000
usemtl room-atlas
s off
f 4/1/1 3/2/1 1/3/1 2/4/1
f 5/5/2 6/6/2 7/7/2 8/8/2
f 3/9/3 4/10/3 5/11/3 8/12/3
f 2/4/4 1/13/4 7/14/4 6/15/4
f 1/16/5 3/17/5 8/18/5 7/19/5
f 4/20/6 2/21/6 6/6/6 5/5/6
