# Blender v2.76 (sub 0) OBJ File: 'monsters.blend'
# www.blender.org
mtllib monster-zombie.mtl
o monster-zombie_Plane.002
v -0.951086 0.000000 0.062500
v 0.951086 0.000000 0.062500
v -0.755429 0.695621 0.062500
v 0.820648 0.317351 0.062500
v -0.644557 0.904321 0.062500
v 0.670644 0.571705 0.062500
v -0.611947 1.836952 0.062500
v 0.755429 1.713037 0.062500
v -0.618469 2.215222 0.062500
v 0.533684 2.743496 0.062500
v -0.546728 2.678277 0.062500
v 0.481509 3.597865 0.062500
v -0.416290 3.226116 0.062500
v 0.585860 3.728302 0.062500
v -0.527162 3.415251 0.062500
v 0.644557 3.832653 0.062500
v -0.318462 4.276142 0.062500
v 0.445639 4.412739 0.062500
v -0.264113 4.611295 0.062500
v 0.418464 4.657310 0.062500
v -0.055774 4.828691 0.062500
v 0.228242 4.815829 0.062500
v 1.310334 3.986642 0.062500
v 1.079712 4.331215 0.062500
v 1.514143 4.172335 0.062500
v 1.156707 4.630136 0.062500
v 1.631899 4.407848 0.062500
v 1.360516 4.747892 0.062500
v 1.627370 4.656948 0.062500
v -0.934781 3.342786 0.062500
v -0.961593 4.085920 0.062500
v -1.247288 3.419780 0.062500
v -1.269572 3.768883 0.062500
v -0.951086 0.000000 -0.062500
v 0.951086 0.000000 -0.062500
v -0.755429 0.695621 -0.062500
v 0.820648 0.317351 -0.062500
v -0.644557 0.904321 -0.062500
v 0.670644 0.571705 -0.062500
v -0.611947 1.836952 -0.062500
v 0.755429 1.713037 -0.062500
v -0.618469 2.215222 -0.062500
v 0.533684 2.743496 -0.062500
v -0.546728 2.678277 -0.062500
v 0.481509 3.597865 -0.062500
v -0.416290 3.226116 -0.062500
v 0.585860 3.728302 -0.062500
v -0.527162 3.415251 -0.062500
v 0.644557 3.832653 -0.062500
v -0.318462 4.276142 -0.062500
v 0.445639 4.412739 -0.062500
v -0.264113 4.611295 -0.062500
v 0.418464 4.657310 -0.062500
v -0.055774 4.828691 -0.062500
v 0.228242 4.815829 -0.062500
v 1.310334 3.986642 -0.062500
v 1.079712 4.331215 -0.062500
v 1.514143 4.172335 -0.062500
v 1.156707 4.630136 -0.062500
v 1.631899 4.407848 -0.062500
v 1.360516 4.747892 -0.062500
v 1.627370 4.656948 -0.062500
v -0.934781 3.342786 -0.062500
v -0.961593 4.085920 -0.062500
v -1.247288 3.419780 -0.062500
v -1.269572 3.768883 -0.062500
vt 0.155260 0.001582
vt 0.344942 0.001582
vt 0.331935 0.033228
vt 0.174770 0.070949
vt 0.316977 0.058592
vt 0.185826 0.091760
vt 0.325432 0.172404
vt 0.189078 0.184761
vt 0.303319 0.275161
vt 0.188428 0.222482
vt 0.298117 0.360358
vt 0.195582 0.268657
vt 0.308522 0.373365
vt 0.208589 0.323287
vt 0.314376 0.383770
vt 0.197533 0.342147
vt 0.294540 0.441616
vt 0.218344 0.427995
vt 0.291830 0.466004
vt 0.223764 0.461416
vt 0.272861 0.481812
vt 0.244539 0.483094
vt 0.380766 0.399126
vt 0.357769 0.433487
vt 0.401090 0.417643
vt 0.365447 0.463295
vt 0.412832 0.441128
vt 0.385770 0.475037
vt 0.412381 0.465968
vt 0.154212 0.409026
vt 0.156886 0.334921
vt 0.123501 0.377411
vt 0.125723 0.342599
vn -0.000000 -0.000000 1.000000
vn 0.000000 0.000000 -1.000000
vn 0.045200 0.999000 0.000000
vn -0.988200 0.153100 0.000000
vn 0.924900 0.380200 0.000000
vn 0.640200 0.768200 0.000000
vn -0.283600 0.958900 0.000000
vn -0.722000 0.691900 0.000000
vn 0.780900 -0.624700 0.000000
vn 0.175000 -0.984600 0.000000
vn -0.972800 0.231600 0.000000
vn -0.998000 -0.063700 0.000000
vn 0.861400 0.508000 0.000000
vn 0.225300 -0.974300 0.000000
vn -0.717300 0.696800 0.000000
vn -0.883100 0.469200 0.000000
vn 0.127500 0.991800 0.000000
vn 0.871600 -0.490300 0.000000
vn -0.239200 -0.971000 0.000000
vn -0.862700 -0.505700 0.000000
vn 0.997300 -0.074100 0.000000
vn 0.673500 -0.739200 0.000000
vn -0.999400 0.034900 0.000000
vn -0.968400 0.249400 0.000000
vn 0.977600 0.210400 0.000000
vn 0.894400 -0.447200 0.000000
vn -0.999900 -0.017200 0.000000
vn -0.500300 0.865900 0.000000
vn 0.993900 0.110400 0.000000
vn 0.999800 0.018200 0.000000
vn -0.962600 0.270800 0.000000
vn -0.987100 0.160100 0.000000
vn 0.998100 0.061000 0.000000
vn 0.322600 0.946500 0.000000
vn 0.000000 -1.000000 0.000000
usemtl monster
s off
f 1/1/1 2/2/1 4/3/1 3/4/1
f 3/4/1 4/3/1 6/5/1 5/6/1
f 5/6/1 6/5/1 8/7/1 7/8/1
f 7/8/1 8/7/1 10/9/1 9/10/1
f 9/10/1 10/9/1 12/11/1 11/12/1
f 11/12/1 12/11/1 14/13/1 13/14/1
f 13/14/1 14/13/1 16/15/1 15/16/1
f 15/16/1 16/15/1 18/17/1 17/18/1
f 17/18/1 18/17/1 20/19/1 19/20/1
f 19/20/1 20/19/1 22/21/1 21/22/1
f 18/17/1 16/15/1 23/23/1 24/24/1
f 24/24/1 23/23/1 25/25/1 26/26/1
f 26/26/1 25/25/1 27/27/1 28/28/1
f 28/28/1 27/27/1 29/29/1
f 15/16/1 17/18/1 31/30/1 30/31/1
f 30/31/1 31/30/1 33/32/1 32/33/1
f 34/1/2 36/4/2 37/3/2 35/2/2
f 36/4/2 38/6/2 39/5/2 37/3/2
f 38/6/2 40/8/2 41/7/2 39/5/2
f 40/8/2 42/10/2 43/9/2 41/7/2
f 42/10/2 44/12/2 45/11/2 43/9/2
f 44/12/2 46/14/2 47/13/2 45/11/2
f 46/14/2 48/16/2 49/15/2 47/13/2
f 48/16/2 50/18/2 51/17/2 49/15/2
f 50/18/2 52/20/2 53/19/2 51/17/2
f 52/20/2 54/22/2 55/21/2 53/19/2
f 51/17/2 57/24/2 56/23/2 49/15/2
f 57/24/2 59/26/2 58/25/2 56/23/2
f 59/26/2 61/28/2 60/27/2 58/25/2
f 61/28/2 62/29/2 60/27/2
f 48/16/2 63/31/2 64/30/2 50/18/2
f 63/31/2 65/33/2 66/32/2 64/30/2
f 22/21/3 55/21/3 54/22/3 21/22/3
f 11/12/4 44/12/4 42/10/4 9/10/4
f 2/2/5 35/2/5 37/3/5 4/3/5
f 20/19/6 53/19/6 55/21/6 22/21/6
f 17/18/7 50/18/7 64/30/7 31/30/7
f 21/22/8 54/22/8 52/20/8 19/20/8
f 12/11/9 45/11/9 47/13/9 14/13/9
f 30/31/10 63/31/10 48/16/10 15/16/10
f 13/14/11 46/14/11 44/12/11 11/12/11
f 33/32/12 66/32/12 65/33/12 32/33/12
f 4/3/13 37/3/13 39/5/13 6/5/13
f 16/15/14 49/15/14 56/23/14 23/23/14
f 31/30/15 64/30/15 66/32/15 33/32/15
f 5/6/16 38/6/16 36/4/16 3/4/16
f 24/24/17 57/24/17 51/17/17 18/17/17
f 14/13/18 47/13/18 49/15/18 16/15/18
f 32/33/19 65/33/19 63/31/19 30/31/19
f 15/16/20 48/16/20 46/14/20 13/14/20
f 6/5/21 39/5/21 41/7/21 8/7/21
f 23/23/22 56/23/22 58/25/22 25/25/22
f 7/8/23 40/8/23 38/6/23 5/6/23
f 26/26/24 59/26/24 57/24/24 24/24/24
f 8/7/25 41/7/25 43/9/25 10/9/25
f 25/25/26 58/25/26 60/27/26 27/27/26
f 9/10/27 42/10/27 40/8/27 7/8/27
f 28/28/28 61/28/28 59/26/28 26/26/28
f 18/17/29 51/17/29 53/19/29 20/19/29
f 27/27/30 60/27/30 62/29/30 29/29/30
f 3/4/31 36/4/31 34/1/31 1/1/31
f 19/20/32 52/20/32 50/18/32 17/18/32
f 10/9/33 43/9/33 45/11/33 12/11/33
f 29/29/34 62/29/34 61/28/34 28/28/34
f 1/1/35 34/1/35 35/2/35 2/2/35
