# Blender v2.78 (sub 0) OBJ File: 'monsters.blend'
# www.blender.org
mtllib monster-devil.mtl
o Plane_Plane.006
v 0.947863 0.000000 -0.000000
v 1.658939 0.330675 -0.000000
v 1.663802 0.000000 -0.000000
v 1.838865 0.695390 -0.000001
v 1.430384 1.026066 -0.000000
v 1.269909 1.517215 -0.000000
v 1.474149 1.658239 -0.000000
v 1.660884 3.029568 -0.000000
v 1.071504 3.823189 -0.000000
v 0.808909 3.829024 -0.000000
v 1.089010 4.249176 -0.000000
v 0.803073 4.517606 -0.000000
v -0.282320 4.634315 0.000000
v -0.632446 4.476758 0.000000
v -0.498231 3.957403 0.000000
v -0.889206 3.817353 0.000000
v -1.233497 3.362188 0.000000
v -1.461079 2.615251 0.000000
v -1.140130 2.265125 0.000000
v -0.848358 2.446023 0.000000
v -0.807510 2.638593 0.000000
v -0.889206 2.895353 0.000000
v -0.673294 3.082087 0.000000
v -0.550750 2.644428 0.000000
v -1.011750 2.142580 0.000000
v -1.186814 0.658043 0.000000
v -1.775027 0.342929 0.000000
v -1.719006 0.006807 0.000000
v -0.661624 0.006807 0.000000
v -0.486560 1.064190 0.000000
v -0.059406 1.617390 -0.000000
v 0.962964 0.517992 -0.000000
vt 0.3342 0.4967
vt 0.4054 0.4967
vt 0.4039 0.5481
vt 0.3347 0.5295
vt 0.3574 0.5986
vt 0.3168 0.5657
vt 0.5054 0.6574
vt 0.3734 0.6474
vt 0.5543 0.7594
vt 0.3531 0.6614
vt 0.5479 0.6024
vt 0.6001 0.7095
vt 0.5653 0.4973
vt 0.6175 0.5620
vt 0.6759 0.5307
vt 0.6703 0.4973
vt 0.5664 0.8029
vt 0.3345 0.7977
vt 0.3931 0.8765
vt 0.4192 0.8771
vt 0.5879 0.8759
vt 0.5490 0.8899
vt 0.5879 0.7843
vt 0.6221 0.8307
vt 0.5798 0.7588
vt 0.6447 0.7565
vt 0.6128 0.7217
vt 0.5838 0.7397
vt 0.5624 0.9415
vt 0.3913 0.9189
vt 0.4197 0.9455
vt 0.5276 0.9571
vn -0.0000 -0.0000 -1.0000
usemtl monster.2
s off
f 3/1/1 1/2/1 32/3/1 2/4/1
f 5/5/1 4/6/1 2/4/1 32/3/1
f 5/5/1 32/3/1 31/7/1 6/8/1
f 6/8/1 31/7/1 24/9/1 7/10/1
f 24/9/1 31/7/1 30/11/1 25/12/1
f 25/12/1 30/11/1 29/13/1 26/14/1
f 27/15/1 26/14/1 29/13/1 28/16/1
f 7/10/1 24/9/1 23/17/1 8/18/1
f 9/19/1 8/18/1 23/17/1 10/20/1
f 16/21/1 15/22/1 10/20/1 23/17/1
f 16/21/1 23/17/1 22/23/1 17/24/1
f 17/24/1 22/23/1 21/25/1 18/26/1
f 19/27/1 18/26/1 21/25/1 20/28/1
f 10/20/1 15/22/1 14/29/1 11/30/1
f 12/31/1 11/30/1 14/29/1 13/32/1
