# Blender v2.78 (sub 0) OBJ File: 'monsters.blend'
# www.blender.org
mtllib monster-ballerina.mtl
o monster-ballerina_Plane.003
v 1.230607 2.855077 0.062500
v -1.337757 3.114440 0.062500
v 1.162316 2.573554 0.062500
v -1.228726 2.541309 0.062500
v 0.660493 2.231678 0.062500
v -0.791639 2.239527 0.062500
v 0.675072 2.074950 0.062500
v -0.806752 2.046909 0.062500
v 0.770130 1.477645 0.062500
v -0.895055 1.384932 0.062500
v 0.992040 0.534773 0.062500
v -0.976517 0.392624 0.062500
v 1.079091 0.000000 0.062500
v -1.021239 0.000000 0.062500
v -1.337757 3.114440 -0.062500
v 1.230607 2.855077 -0.062500
v -1.228726 2.541309 -0.062500
v 1.162316 2.573554 -0.062500
v -0.791639 2.239527 -0.062500
v 0.660493 2.231678 -0.062500
v -0.806752 2.046909 -0.062500
v 0.675072 2.074950 -0.062500
v -0.895055 1.384932 -0.062500
v 0.770130 1.477645 -0.062500
v -0.976517 0.392624 -0.062500
v 0.992040 0.534773 -0.062500
v 1.079091 0.000000 -0.062500
v -1.021239 0.000000 -0.062500
v 0.917555 3.160302 0.062500
v -1.009053 3.325750 0.062500
v -1.009053 3.325750 -0.062500
v 0.917555 3.160302 -0.062500
v 0.620157 3.230739 0.062500
v -0.461214 3.364881 0.062500
v -0.461214 3.364881 -0.062500
v 0.620157 3.230739 -0.062500
v 0.739725 3.790535 0.062500
v -0.510128 3.549668 0.062500
v -0.510128 3.549668 -0.062500
v 0.739725 3.790535 -0.062500
v 0.707116 4.040542 0.062500
v -0.765569 3.718151 0.062500
v -0.765569 3.718151 -0.062500
v 0.707116 4.040542 -0.062500
v 0.631027 4.317722 0.062500
v -0.472084 4.207293 0.062500
v -0.472084 4.207293 -0.062500
v 0.631027 4.317722 -0.062500
v 0.560373 4.643817 0.062500
v -0.379690 4.571433 0.062500
v -0.379690 4.571433 -0.062500
v 0.560373 4.643817 -0.062500
v 0.239713 4.872084 0.062500
v -0.151424 4.843178 0.062500
v -0.151424 4.843178 -0.062500
v 0.239713 4.872084 -0.062500
v -1.032999 3.714474 0.062500
v -1.032999 3.714474 -0.062500
v -0.891691 4.214487 0.062500
v -0.891691 4.214487 -0.062500
v -1.203082 3.999787 0.062500
v -1.203082 3.999787 -0.062500
v -0.920467 4.222619 0.062500
v -0.920467 4.222619 -0.062500
vt 0.4281 0.2556
vt 0.6665 0.2587
vt 0.6733 0.2866
vt 0.4172 0.3122
vt 0.4716 0.2257
vt 0.6165 0.2250
vt 0.4701 0.2067
vt 0.6179 0.2095
vt 0.4613 0.1413
vt 0.6274 0.1505
vt 0.4532 0.0433
vt 0.6495 0.0573
vt 0.4487 0.0045
vt 0.6582 0.0045
vt 0.4281 0.2556
vt 0.4172 0.3122
vt 0.6733 0.2866
vt 0.6665 0.2587
vt 0.4716 0.2257
vt 0.6165 0.2250
vt 0.4701 0.2067
vt 0.6179 0.2095
vt 0.4613 0.1413
vt 0.6274 0.1505
vt 0.4532 0.0433
vt 0.6495 0.0573
vt 0.4487 0.0045
vt 0.6582 0.0045
vt 0.4500 0.3331
vt 0.6421 0.3167
vt 0.6421 0.3167
vt 0.4500 0.3331
vt 0.5046 0.3369
vt 0.5046 0.3369
vt 0.6125 0.3237
vt 0.6125 0.3237
vt 0.6244 0.3790
vt 0.6244 0.3790
vt 0.4997 0.3552
vt 0.4997 0.3552
vt 0.4742 0.3718
vt 0.4742 0.3718
vt 0.6211 0.4037
vt 0.6211 0.4037
vt 0.4476 0.3715
vt 0.4476 0.3715
vt 0.6135 0.4311
vt 0.5035 0.4202
vt 0.6135 0.4311
vt 0.5035 0.4202
vt 0.6065 0.4633
vt 0.6065 0.4633
vt 0.5127 0.4561
vt 0.5127 0.4561
vt 0.5355 0.4830
vt 0.5355 0.4830
vt 0.5745 0.4858
vt 0.5745 0.4858
vt 0.4617 0.4209
vt 0.4306 0.3997
vt 0.4588 0.4217
vt 0.4617 0.4209
vt 0.4306 0.3997
vt 0.4588 0.4217
vn 0.0000 -0.0000 1.0000
vn -0.0000 0.0000 -1.0000
vn 0.9876 0.1572 0.0000
vn -0.9966 0.0818 0.0000
vn 0.9734 0.2291 0.0000
vn -0.9824 -0.1869 0.0000
vn 0.9718 -0.2357 0.0000
vn 0.9870 0.1607 0.0000
vn -0.5682 -0.8229 0.0000
vn 0.0000 -1.0000 0.0000
vn 0.5630 -0.8264 0.0000
vn -0.9936 0.1132 0.0000
vn -0.9969 0.0782 0.0000
vn 0.9957 0.0926 0.0000
vn -0.9912 0.1322 0.0000
vn 0.6981 0.7160 0.0000
vn -0.5408 0.8412 0.0000
vn -0.0712 0.9975 0.0000
vn 0.2305 0.9731 0.0000
vn 0.9779 -0.2089 0.0000
vn -0.9667 -0.2559 0.0000
vn -0.5506 -0.8348 0.0000
vn 0.9916 0.1293 0.0000
vn 0.0137 -0.9999 0.0000
vn 0.9643 0.2647 0.0000
vn 0.9773 0.2118 0.0000
vn -0.9693 0.2459 0.0000
vn -0.7657 0.6432 0.0000
vn 0.5799 0.8147 0.0000
vn 0.0171 0.9999 0.0000
vn -0.6192 0.7853 0.0000
vn 0.2720 0.9623 0.0000
vn -0.8590 -0.5120 0.0000
vn -0.0737 0.9973 0.0000
usemtl monster
s off
f 4/1/1 3/2/1 1/3/1 2/4/1
f 6/5/1 5/6/1 3/2/1 4/1/1
f 8/7/1 7/8/1 5/6/1 6/5/1
f 10/9/1 9/10/1 7/8/1 8/7/1
f 12/11/1 11/12/1 9/10/1 10/9/1
f 14/13/1 13/14/1 11/12/1 12/11/1
f 17/15/2 15/16/2 16/17/2 18/18/2
f 19/19/2 17/15/2 18/18/2 20/20/2
f 21/21/2 19/19/2 20/20/2 22/22/2
f 23/23/2 21/21/2 22/22/2 24/24/2
f 25/25/2 23/23/2 24/24/2 26/26/2
f 28/27/2 25/25/2 26/26/2 27/28/2
f 9/10/3 24/24/3 22/22/3 7/8/3
f 10/9/4 23/23/4 25/25/4 12/11/4
f 11/12/5 26/26/5 24/24/5 9/10/5
f 2/4/6 15/16/6 17/15/6 4/1/6
f 3/2/7 18/18/7 16/17/7 1/3/7
f 13/14/8 27/28/8 26/26/8 11/12/8
f 4/1/9 17/15/9 19/19/9 6/5/9
f 14/13/10 28/27/10 27/28/10 13/14/10
f 5/6/11 20/20/11 18/18/11 3/2/11
f 12/11/12 25/25/12 28/27/12 14/13/12
f 6/5/13 19/19/13 21/21/13 8/7/13
f 7/8/14 22/22/14 20/20/14 5/6/14
f 8/7/15 21/21/15 23/23/15 10/9/15
f 16/17/2 15/16/2 31/29/2 32/30/2
f 1/3/16 16/17/16 32/30/16 29/31/16
f 2/4/1 1/3/1 29/31/1 30/32/1
f 15/16/17 2/4/17 30/32/17 31/29/17
f 31/29/18 30/32/18 34/33/18 35/34/18
f 30/32/1 29/31/1 33/35/1 34/33/1
f 29/31/19 32/30/19 36/36/19 33/35/19
f 32/30/2 31/29/2 35/34/2 36/36/2
f 33/35/20 36/36/20 40/37/20 37/38/20
f 36/36/2 35/34/2 39/39/2 40/37/2
f 35/34/21 34/33/21 38/40/21 39/39/21
f 34/33/1 33/35/1 37/38/1 38/40/1
f 39/39/22 38/40/22 42/41/22 43/42/22
f 38/40/1 37/38/1 41/43/1 42/41/1
f 37/38/23 40/37/23 44/44/23 41/43/23
f 40/37/2 39/39/2 43/42/2 44/44/2
f 43/42/24 42/41/24 57/45/24 58/46/24
f 42/41/1 41/43/1 45/47/1 46/48/1
f 41/43/25 44/44/25 48/49/25 45/47/25
f 44/44/2 43/42/2 47/50/2 48/49/2
f 45/47/26 48/49/26 52/51/26 49/52/26
f 48/49/2 47/50/2 51/53/2 52/51/2
f 47/50/27 46/48/27 50/54/27 51/53/27
f 46/48/1 45/47/1 49/52/1 50/54/1
f 51/53/28 50/54/28 54/55/28 55/56/28
f 50/54/1 49/52/1 53/57/1 54/55/1
f 49/52/29 52/51/29 56/58/29 53/57/29
f 52/51/2 51/53/2 55/56/2 56/58/2
f 60/59/2 58/46/2 62/60/2 64/61/2
f 47/50/2 43/42/2 58/46/2 60/59/2
f 42/41/1 46/48/1 59/62/1 57/45/1
f 46/48/30 47/50/30 60/59/30 59/62/30
f 62/60/31 61/63/31 63/64/31 64/61/31
f 59/62/32 60/59/32 64/61/32 63/64/32
f 57/45/1 59/62/1 63/64/1 61/63/1
f 58/46/33 57/45/33 61/63/33 62/60/33
usemtl monster_NONE
f 56/58/34 55/56/34 54/55/34 53/57/34
