# Blender v2.78 (sub 0) OBJ File: 'monsters.blend'
# www.blender.org
mtllib monster-flame-zombie.mtl
o monster-flame-zombie_Plane.005
v 1.105839 3.178658 0.050000
v -1.019352 2.450836 0.050000
v 0.689973 2.356696 0.050000
v -0.815330 2.203434 0.050000
v 0.636332 1.610692 0.050000
v -0.731454 1.502326 0.050000
v 0.881721 0.589557 0.050000
v -0.906832 0.564803 0.050000
v 0.867030 0.015653 0.050000
v -1.084600 0.015653 0.050000
v -0.240281 5.017833 0.050000
v -0.440207 4.994377 0.050000
v -0.588907 4.681326 0.050000
v -0.028971 4.665651 0.050000
v 0.205817 4.548257 0.050000
v -0.667169 4.454364 0.050000
v -1.011526 4.297838 0.050000
v 0.370169 4.289989 0.050000
v 0.722352 4.063027 0.050000
v -1.152399 4.047397 0.050000
v -1.293272 4.031744 0.050000
v 0.824093 3.976938 0.050000
v 0.910182 3.601277 0.050000
v -1.355882 3.695214 0.050000
v -1.113267 2.983023 0.050000
v 1.105839 3.515188 0.050000
vt 0.4179 0.7173
vt 0.5691 0.7327
vt 0.6108 0.8153
vt 0.3974 0.7422
vt 0.4263 0.6469
vt 0.5637 0.6578
vt 0.4087 0.5528
vt 0.5883 0.5552
vt 0.3908 0.4976
vt 0.5868 0.4976
vt 0.4323 0.9424
vt 0.5204 0.9521
vt 0.4968 0.9646
vt 0.4413 0.9664
vt 0.4754 0.9985
vt 0.4553 0.9962
vt 0.3984 0.9270
vt 0.5369 0.9269
vt 0.3835 0.9013
vt 0.5718 0.9031
vt 0.3879 0.7956
vt 0.6108 0.8491
vt 0.5912 0.8577
vt 0.3636 0.8672
vt 0.5825 0.8955
vt 0.3706 0.9005
vn -0.0000 -0.0000 1.0000
usemtl monster
s off
f 4/1/1 3/2/1 1/3/1 2/4/1
f 6/5/1 5/6/1 3/2/1 4/1/1
f 8/7/1 7/8/1 5/6/1 6/5/1
f 10/9/1 9/10/1 7/8/1 8/7/1
f 16/11/1 15/12/1 14/13/1 13/14/1
f 13/14/1 14/13/1 11/15/1 12/16/1
f 17/17/1 18/18/1 15/12/1 16/11/1
f 20/19/1 19/20/1 18/18/1 17/17/1
f 25/21/1 26/22/1 23/23/1 24/24/1
f 24/24/1 23/23/1 22/25/1 21/26/1
f 2/4/1 1/3/1 26/22/1 25/21/1
f 21/26/1 22/25/1 19/20/1 20/19/1
