# Blender v2.78 (sub 0) OBJ File: 'ghost-train-build-kit.blend'
# www.blender.org
mtllib ceiling-set-room-4.mtl
o ceiling-set-room-4_Plane.014
v 4.000002 4.000000 4.000000
v 0.000002 4.000000 0.000000
v 4.000002 4.000000 -0.000000
v 0.000002 4.000000 4.000000
v 4.000002 4.000000 12.000000
v 0.000002 4.000000 8.000000
v 4.000002 4.000000 8.000000
v 4.000002 4.000000 16.000000
v 0.000002 4.000000 12.000000
v 0.000002 4.000000 16.000000
v 0.000002 4.000000 20.000000
v 4.000002 4.000000 20.000000
v 0.000002 4.000000 28.000000
v 4.000002 4.000000 28.000000
v 0.000002 4.000000 24.000000
v 4.000001 4.000000 24.000000
vt 0.0000 0.0000
vt 0.2500 0.0000
vt 0.2500 0.2500
vt 0.0000 0.2500
vt 0.0000 0.0000
vt 0.2500 0.0000
vt 0.2500 0.2500
vt 0.0000 0.2500
vt 0.0000 0.0000
vt 0.2500 0.0000
vt 0.2500 0.2500
vt 0.0000 0.2500
vt 0.0000 0.0000
vt 0.2500 0.0000
vt 0.2500 0.2500
vt 0.0000 0.2500
vt 0.0000 0.0000
vt 0.2500 0.0000
vt 0.2500 0.2500
vt 0.0000 0.2500
vt 0.0000 0.0000
vt 0.2500 0.0000
vt 0.2500 0.2500
vt 0.0000 0.2500
vt 0.0000 0.0000
vt 0.2500 0.0000
vt 0.2500 0.2500
vt 0.0000 0.2500
vn 0.0000 -1.0000 0.0000
usemtl room-atlas
s off
f 4/1/1 2/2/1 3/3/1 1/4/1
f 6/5/1 4/6/1 1/7/1 7/8/1
f 9/9/1 6/10/1 7/11/1 5/12/1
f 10/13/1 9/14/1 5/15/1 8/16/1
f 11/17/1 10/18/1 8/19/1 12/20/1
f 15/21/1 11/22/1 12/23/1 16/24/1
f 13/25/1 15/26/1 16/27/1 14/28/1
