# Blender v2.78 (sub 0) OBJ File: 'ghost-train-build-kit.blend'
# www.blender.org
mtllib ceiling-set-room-0.mtl
o ceiling-set-room-0_Plane.010
v 0.000001 4.000000 -0.000000
v 4.000001 4.000000 -0.000001
v 0.000001 4.000000 8.000000
v 0.000001 4.000000 4.000000
v 8.000001 4.000000 3.999999
v 4.000001 4.000000 8.000000
v 4.000001 4.000000 3.999999
v 8.000001 4.000000 -0.000000
v 12.000001 4.000000 -0.000001
v 8.000001 4.000000 7.999999
v 12.000001 4.000000 7.999999
v 12.000001 4.000000 3.999999
vt 0.0000 0.0000
vt 0.2500 0.0000
vt 0.2500 0.2500
vt 0.0000 0.2500
vt 0.0000 0.0000
vt 0.2500 0.0000
vt 0.2500 0.2500
vt 0.0000 0.2500
vt 0.0000 0.0000
vt 0.2500 0.0000
vt 0.2500 0.2500
vt 0.0000 0.2500
vt 0.0000 0.0000
vt 0.2500 0.0000
vt 0.2500 0.2500
vt 0.0000 0.2500
vt 0.0000 0.0000
vt 0.2500 0.0000
vt 0.2500 0.2500
vt 0.0000 0.2500
vt 0.0000 0.0000
vt 0.2500 0.0000
vt 0.2500 0.2500
vt 0.0000 0.2500
vn 0.0000 -1.0000 0.0000
usemtl room-atlas
s off
f 4/1/1 1/2/1 2/3/1 7/4/1
f 3/5/1 4/6/1 7/7/1 6/8/1
f 7/9/1 2/10/1 8/11/1 5/12/1
f 6/13/1 7/14/1 5/15/1 10/16/1
f 5/17/1 8/18/1 9/19/1 12/20/1
f 10/21/1 5/22/1 12/23/1 11/24/1
