# Blender v2.76 (sub 0) OBJ File: 'ghost-train-build-kit.blend'
# www.blender.org
mtllib corner_default_outer_4x4.mtl
o corner_default_outer_4x4_Cube.005
v -0.250000 0.000000 0.000000
v -0.250000 8.000000 -8.499998
v -0.250000 8.000000 0.000002
v -0.250001 0.000000 -8.499998
v 8.249999 0.000000 -8.499998
v 8.250001 8.000000 -8.499998
v -0.250000 8.000000 -7.999998
v -0.250000 0.000000 -8.000000
v 0.249999 0.000000 -8.499998
v 0.250000 8.000000 -8.499998
vt 0.000000 0.500100
vt 0.499900 0.500100
vt 0.499900 1.000000
vt 0.000000 1.000000
vt 0.055645 0.500500
vt 0.027822 0.500500
vt 0.027822 1.000500
vt 0.055645 1.000500
vt 0.054281 0.500500
vt 0.054281 1.000500
vt 0.027140 1.000500
vt 0.027140 0.500500
vn -1.000000 0.000000 0.000000
vn 0.000000 0.000000 -1.000000
usemtl room-atlas
s off
f 8/1/1 1/2/1 3/3/1 7/4/1
f 9/2/2 10/3/2 6/4/2 5/1/2
f 4/5/1 8/6/1 7/7/1 2/8/1
f 4/9/2 2/10/2 10/11/2 9/12/2
