# Blender v2.78 (sub 0) OBJ File: 'ghost-train-build-kit.blend'
# www.blender.org
mtllib corner_inner_4x4_NE.mtl
o corner_inner_4x4_NE_Cube.020
v 0.000000 0.000000 0.000000
v 0.000001 4.000000 -3.999998
v -0.000000 4.000000 0.000001
v 0.000001 0.000000 -3.999999
v 4.000000 0.000000 -3.999997
v 4.000001 4.000000 -3.999997
vt 0.5000 0.5005
vt 0.5000 1.0005
vt -0.0000 1.0005
vt -0.0000 0.5005
vt -0.0000 0.5005
vt -0.0000 1.0005
vn 1.0000 -0.0000 0.0000
vn -0.0000 -0.0000 1.0000
usemtl room-atlas
s off
f 4/1/1 2/2/1 3/3/1 1/4/1
f 4/1/2 5/5/2 6/6/2 2/2/2
