# Blender v2.76 (sub 0) OBJ File: 'ghost-train-build-kit.blend'
# www.blender.org
mtllib corner_default_1x1-1.mtl
o corner_default_1x1-1_Cube.018
v 0.250000 0.000000 -1.750000
v 0.250000 0.000000 0.000000
v -0.250000 0.000000 -0.000000
v -0.250000 0.000000 -2.250000
v 0.250000 8.000000 -1.750000
v 0.250000 8.000000 0.000001
v -0.250000 8.000000 -0.000000
v -0.250000 8.000000 -2.250000
v 2.000000 0.000000 -2.250000
v 2.000000 0.000000 -1.750000
v 2.000000 8.000000 -2.250000
v 2.000000 8.000000 -1.750000
vt -0.000002 -0.123000
vt 0.499998 -0.123000
vt 0.499998 0.002000
vt -0.000002 0.002000
vt -0.000002 2.002000
vt -0.000002 2.127000
vt 0.499997 2.127000
vt 0.499998 2.002000
vt -0.125002 2.002000
vt -0.125002 0.002000
vt 0.584647 2.002000
vt 0.584647 0.002000
vt 0.459647 0.002000
vt 0.459647 2.002000
vt 0.999999 -0.123000
vt 0.999999 0.002000
vt 0.999999 2.002000
vt 0.999999 2.127000
vt 1.124999 0.002000
vt 1.124999 2.002000
vn 0.000000 -1.000000 0.000000
vn 0.000000 1.000000 0.000000
vn 1.000000 -0.000000 0.000000
vn -0.000000 -0.000000 1.000000
vn -1.000000 0.000000 -0.000000
vn 0.707100 0.000000 -0.707100
vn 0.000000 0.000000 -1.000000
usemtl wall-material
s off
f 1/1/1 2/2/1 3/3/1 4/4/1
f 5/5/2 8/6/2 7/7/2 6/8/2
f 1/3/3 5/8/3 6/5/3 2/4/3
f 2/4/4 6/5/4 7/9/4 3/10/4
f 3/3/5 7/8/5 8/5/5 4/4/5
f 5/11/6 1/12/6 4/13/6 8/14/6
f 4/15/1 9/2/1 10/3/1 1/16/1
f 8/17/2 5/18/2 12/7/2 11/8/2
f 4/16/7 8/17/7 11/8/7 9/3/7
f 9/19/3 11/20/3 12/17/3 10/16/3
f 10/16/4 12/17/4 5/8/4 1/3/4
