# Blender v2.76 (sub 0) OBJ File: 'ghost-train-build-kit.blend'
# www.blender.org
mtllib corner_default_inner_4x4.mtl
o corner_default_inner_4x4_Cube.004
v 0.250000 0.000000 0.000000
v 0.250000 8.000000 -7.999998
v 0.250000 8.000000 0.000002
v 0.249999 0.000000 -7.999999
v 8.249999 0.000000 -7.999999
v 8.250001 8.000000 -7.999999
vt 0.499998 0.500500
vt 0.499998 1.000500
vt -0.000002 1.000500
vt -0.000001 0.500500
vn 1.000000 -0.000000 -0.000000
vn 0.000000 -0.000000 1.000000
usemtl room-atlas
s off
f 4/1/1 2/2/1 3/3/1 1/4/1
f 4/1/2 5/4/2 6/3/2 2/2/2
