# Blender v2.76 (sub 0) OBJ File: 'ghost-train-build-kit.blend'
# www.blender.org
mtllib wall_door-frame.mtl
o wall_door-frame_Cube.028
v 0.250000 0.000000 -14.000000
v 0.250000 0.000000 -10.000000
v -0.250000 0.000000 -10.000000
v -0.250000 0.000000 -14.000000
v 0.250000 8.000000 -13.999999
v 0.250000 8.000000 -9.999998
v -0.250000 8.000000 -10.000000
v -0.250000 8.000000 -14.000000
v 0.250000 0.000000 -4.000000
v 0.250000 0.000000 0.000000
v -0.250000 0.000000 0.000000
v -0.250000 0.000000 -4.000000
v 0.250000 8.000000 -3.999999
v 0.250000 8.000000 0.000002
v -0.250000 8.000000 -0.000001
v -0.250000 8.000000 -4.000000
v 0.250000 6.000000 -10.000000
v 0.250000 6.000000 -7.000000
v -0.250000 6.000000 -7.000000
v -0.250000 6.000000 -10.000000
v 0.250000 8.000000 -10.000000
v 0.250000 8.000000 -6.999999
v -0.250000 8.000000 -7.000000
v -0.250000 8.000000 -10.000000
v 0.250000 6.000000 -7.000000
v 0.250000 6.000000 -4.000000
v -0.250000 6.000000 -4.000000
v -0.250000 6.000000 -7.000000
v 0.250000 8.000000 -7.000000
v 0.250000 8.000000 -3.999999
v -0.250000 8.000000 -4.000000
v -0.250000 8.000000 -7.000000
vt 0.584647 0.002000
vt 0.584647 2.002000
vt 0.459647 2.002000
vt 0.459647 0.002000
vt 1.000002 0.469250
vt 0.500003 0.469250
vt 0.500003 0.500500
vt 1.000002 0.500500
vt 1.000002 1.000500
vt 1.000002 1.031750
vt 0.500003 1.031750
vt 0.500002 1.000500
vt 0.500002 0.002000
vt 0.500002 2.002000
vt 0.375002 2.002000
vt 0.375002 0.002000
vt 1.125002 2.002000
vt 1.125002 0.002000
vt 1.000002 0.002000
vt 1.000002 2.002000
vt 0.000003 0.469250
vt 0.000003 0.500500
vt 0.000002 1.031750
vt 0.000002 1.000500
vt 0.000002 0.002000
vt 0.000002 2.002000
vt -0.124998 2.002000
vt -0.124998 0.002000
vt 0.625002 2.002000
vt 0.625002 0.002000
vt 1.522147 0.002000
vt 0.522148 0.002000
vt 0.522148 0.127000
vt 1.522147 0.127000
vt 1.522147 0.877000
vt 1.522147 1.002000
vt 0.522148 1.002000
vt 0.522147 0.877000
vn -0.000000 -0.000000 1.000000
vn 0.000000 0.000000 -1.000000
vn 0.000000 -1.000000 0.000000
vn 0.000000 1.000000 0.000000
vn 1.000000 -0.000000 0.000000
vn -1.000000 -0.000000 -0.000000
usemtl wall-material
s off
f 2/1/1 6/2/1 7/3/1 3/4/1
f 5/2/2 1/1/2 4/4/2 8/3/2
f 10/1/1 14/2/1 15/3/1 11/4/1
f 13/2/2 9/1/2 12/4/2 16/3/2
f 17/5/3 18/6/3 19/7/3 20/8/3
f 21/9/4 24/10/4 23/11/4 22/12/4
f 17/8/5 21/9/5 22/12/5 18/7/5
f 18/13/1 22/14/1 23/15/1 19/16/1
f 19/7/6 23/12/6 24/9/6 20/8/6
f 21/17/2 17/18/2 20/19/2 24/20/2
f 25/6/3 26/21/3 27/22/3 28/7/3
f 29/12/4 32/11/4 31/23/4 30/24/4
f 25/7/5 29/12/5 30/24/5 26/22/5
f 26/25/1 30/26/1 31/27/1 27/28/1
f 27/22/6 31/24/6 32/12/6 28/7/6
f 29/29/2 25/30/2 28/13/2 32/14/2
usemtl wall-material_Diffuse.jpg
f 1/31/3 2/32/3 3/33/3 4/34/3
f 5/35/4 8/36/4 7/37/4 6/38/4
f 1/19/5 5/20/5 6/26/5 2/25/5
f 3/25/6 7/26/6 8/20/6 4/19/6
f 9/31/3 10/32/3 11/33/3 12/34/3
f 13/35/4 16/36/4 15/37/4 14/38/4
f 9/19/5 13/20/5 14/26/5 10/25/5
f 11/25/6 15/26/6 16/20/6 12/19/6
