# Blender v2.78 (sub 0) OBJ File: 'ghost-train-build-kit.blend'
# www.blender.org
mtllib wall_divider_4x8_N.mtl
o wall_divider_4x8_N_Cube.043
v 8.000000 0.000000 2.600000
v 4.000000 0.000000 2.600000
v 7.999999 4.000000 2.600000
v 3.999999 4.000000 2.600000
v 8.000000 0.000000 1.500000
v 4.000000 0.000000 1.500000
v 7.999999 4.000000 1.500000
v 3.999999 4.000000 1.500000
v 0.000000 0.000000 1.500000
v -0.000001 4.000000 1.500000
v 0.000000 0.000000 2.600000
v -0.000001 4.000000 2.600000
v 0.000000 0.000000 3.999999
v 0.000000 0.000000 0.000000
v 0.000000 4.000000 3.999998
v 0.000000 4.000000 -0.000001
vt 1.0000 0.5000
vt 1.0000 1.0000
vt 0.5000 1.0000
vt 0.5000 0.5000
vt 1.0000 0.5000
vt 0.5000 0.5000
vt 0.5000 1.0000
vt 1.0000 1.0000
vt 1.0000 0.5000
vt 0.5000 0.5000
vt 0.5000 1.0000
vt 1.0000 1.0000
vt 1.0000 0.5000
vt 1.0000 1.0000
vt 0.5000 1.0000
vt 0.5000 0.5000
vt 1.0000 0.5000
vt 0.5000 0.5000
vt 0.5000 1.0000
vt 1.0000 1.0000
vt 0.8750 1.0000
vt 0.8750 0.5000
vn 0.0000 0.0000 1.0000
vn -0.0000 -0.0000 -1.0000
vn 1.0000 0.0000 0.0000
usemtl room-atlas
s off
f 1/1/1 3/2/1 4/3/1 2/4/1
f 5/5/2 6/6/2 8/7/2 7/8/2
f 6/9/2 9/10/2 10/11/2 8/12/2
f 2/13/1 4/14/1 12/15/1 11/16/1
f 13/17/3 14/18/3 16/19/3 15/20/3
f 3/21/3 1/22/3 5/5/3 7/8/3
