# Blender v2.76 (sub 0) OBJ File: 'ghost-train-build-kit.blend'
# www.blender.org
mtllib wall_door-frame.mtl
o wall_door-frame_Cube.028
v 0.250000 0.000000 -14.000000
v 0.250000 0.000000 -10.000000
v -0.250000 0.000000 -10.000000
v -0.250000 0.000000 -14.000000
v 0.250000 8.000000 -13.999999
v 0.250000 8.000000 -9.999998
v -0.250000 8.000000 -14.000000
v 0.250000 0.000000 -4.000000
v 0.250000 0.000000 0.000000
v -0.250000 0.000000 0.000000
v -0.250000 0.000000 -4.000000
v 0.250000 8.000000 0.000002
v -0.250000 8.000000 -0.000001
v -0.250000 8.000000 -4.000000
v -0.250000 6.000000 -10.000000
v -0.250000 8.000000 -10.000000
v 0.250000 8.000000 -3.999999
v 0.250000 4.000000 0.000001
v -0.250000 4.000000 -0.000000
v -0.250000 4.000000 -4.000000
v 0.250000 4.000000 -4.000000
v 0.250000 4.000000 -14.000000
v 0.250000 4.000000 -9.999999
v -0.250000 4.000000 -14.000000
v -0.250000 4.000000 -10.000000
v 0.250000 6.000000 0.000001
v -0.250000 6.000000 -0.000001
v -0.250000 6.000000 -4.000000
v 0.250000 6.000000 -3.999999
v 0.250000 6.000000 -14.000000
v 0.250000 6.000000 -9.999998
v -0.250000 6.000000 -14.000000
vt 0.250000 0.875125
vt 0.250000 1.000000
vt 0.000000 1.000000
vt 0.000000 0.875125
vt 0.177411 0.750250
vt 0.177411 0.500499
vt 0.146161 0.500499
vt 0.146161 0.750250
vt 0.177411 0.875125
vt 0.146161 0.875125
vt 0.250000 0.500499
vt 0.250000 0.750250
vt 0.000000 0.750250
vt 0.000000 0.500499
vt 0.482506 1.000000
vt 0.232506 1.000000
vt 0.232506 0.875000
vt 0.482506 0.875000
vt 0.482506 0.962158
vt 0.232506 0.962158
vn 1.000000 0.000000 0.000000
vn -1.000000 0.000000 -0.000000
vn 0.000000 0.000000 -1.000000
vn 0.000000 -0.000000 1.000000
vn 0.000000 -1.000000 0.000000
usemtl room-atlas
s off
f 30/1/1 5/2/1 6/3/1 31/4/1
f 27/4/2 13/3/2 14/2/2 28/1/2
f 29/1/1 17/2/1 12/3/1 26/4/1
f 21/5/3 8/6/3 11/7/3 20/8/3
f 29/9/3 21/5/3 20/8/3 28/10/3
f 8/11/1 21/12/1 18/13/1 9/14/1
f 10/14/2 19/13/2 20/12/2 11/11/2
f 3/14/2 25/13/2 24/12/2 4/11/2
f 2/6/4 23/5/4 25/8/4 3/7/4
f 1/11/1 22/12/1 23/13/1 2/14/1
f 21/12/1 29/1/1 26/4/1 18/13/1
f 19/13/2 27/4/2 28/1/2 20/12/2
f 22/12/1 30/1/1 31/4/1 23/13/1
f 6/15/1 17/16/1 29/17/1 31/18/1
f 15/4/2 16/3/2 7/2/2 32/1/2
f 25/13/2 15/4/2 32/1/2 24/12/2
f 23/5/4 31/9/4 15/10/4 25/8/4
f 28/16/5 15/15/5 31/19/5 29/20/5
f 14/16/2 16/15/2 15/18/2 28/17/2
