# Blender v2.76 (sub 0) OBJ File: 'ghost-train-build-kit.blend'
# www.blender.org
mtllib wall_default_8x4.mtl
o wall_default_8x4_Cube.037
v 0.000000 0.000000 -16.000000
v 0.000000 8.000000 -15.999998
v 0.000000 0.000000 0.000000
v -0.000000 8.000000 0.000002
v 0.000000 0.000000 -8.000000
v -0.000000 8.000000 -7.999999
vt 0.500000 1.000500
vt 0.000000 1.000500
vt 0.000001 0.500500
vt 0.500000 0.500500
vn 1.000000 0.000000 0.000000
usemtl room-atlas
s off
f 6/1/1 4/2/1 3/3/1 5/4/1
f 2/1/1 6/2/1 5/3/1 1/4/1
