# Blender v2.76 (sub 0) OBJ File: 'ghost-train-build-kit.blend'
# www.blender.org
mtllib door-left-NS.mtl
o door-left-NS_Cube.035
v 0.049544 -0.000000 1.495000
v 0.049544 -0.000000 0.012386
v 0.049544 2.972672 1.495000
v 0.049544 2.972672 0.012386
v -0.049545 2.972672 0.012386
v -0.049545 -0.000000 0.012386
v -0.049545 -0.000000 1.495000
v -0.049545 2.972672 1.495000
vt 0.750000 0.500000
vt 0.500000 0.500000
vt 0.500000 0.000000
vt 0.750000 0.000000
vt 0.724609 0.000000
vt 0.724609 0.500000
vt 0.611328 0.000000
vt 0.611328 0.500000
vt 0.642578 0.500000
vt 0.642578 0.000000
vt 0.721680 0.500000
vt 0.721680 0.000000
vn 1.000000 0.000000 0.000000
vn -1.000000 0.000000 0.000000
vn 0.000000 1.000000 0.000000
vn 0.000000 -1.000000 0.000000
vn 0.000000 0.000000 1.000000
vn 0.000000 0.000000 -1.000000
usemtl room-atlas
s off
f 4/1/1 3/2/1 1/3/1 2/4/1
f 5/1/2 6/4/2 7/3/2 8/2/2
f 3/1/3 4/4/3 5/5/3 8/6/3
f 2/4/4 1/1/4 7/6/4 6/5/4
f 1/7/5 3/8/5 8/9/5 7/10/5
f 4/11/6 2/12/6 6/4/6 5/1/6
