# Blender v2.76 (sub 0) OBJ File: 'ghost-train-build-kit.blend'
# www.blender.org
mtllib corner_default_1x1-2.mtl
o corner_default_1x1-2_Cube.019
v 0.250000 0.000000 -1.750000
v 0.250000 0.000000 0.000000
v 0.250000 8.000000 -1.750000
v 0.250000 8.000000 0.000001
v 2.000000 0.000000 -1.750000
v 2.000000 8.000000 -1.750000
vt 0.125000 0.500499
vt 0.125000 1.000000
vt 0.000000 1.000000
vt 0.000000 0.500499
vt 0.250000 0.500499
vt 0.250000 1.000000
vn 1.000000 -0.000000 0.000000
vn -0.000000 -0.000000 1.000000
usemtl room-atlas
s off
f 1/1/1 3/2/1 4/3/1 2/4/1
f 5/5/2 6/6/2 3/2/2 1/1/2
