# Blender v2.78 (sub 0) OBJ File: 'ghost-train-build-kit.blend'
# www.blender.org
mtllib corner_outer_4x4_NW.mtl
o corner_outer_4x4_NW_Cube.006
v 0.000000 0.000000 0.000002
v 3.999998 4.000000 0.000002
v -0.000001 4.000000 0.000002
v 3.999999 0.000000 0.000001
v 3.999999 0.000000 4.000000
v 3.999999 4.000000 4.000001
vt 1.0000 0.5000
vt 0.5000 0.5000
vt 0.5000 1.0000
vt 1.0000 1.0000
vt 0.5000 1.0000
vt 0.5000 0.5000
vn -0.0000 0.0000 -1.0000
vn 1.0000 0.0000 -0.0000
usemtl room-atlas
s off
f 4/1/1 1/2/1 3/3/1 2/4/1
f 4/1/2 2/4/2 6/5/2 5/6/2
