# Blender v2.78 (sub 0) OBJ File: 'ghost-train-build-kit.blend'
# www.blender.org
mtllib door-frame_8x4_N.mtl
o door-frame_8x4_N_Cube.013
v 0.125000 0.000000 8.000000
v 0.125000 0.000000 5.500000
v 0.125000 4.000000 8.000000
v 0.125000 4.000000 5.499999
v 0.125000 0.000000 2.500000
v 0.125000 0.000000 0.000000
v 0.125000 4.000000 -0.000000
v 0.125000 4.000000 2.500000
v 0.125000 2.000000 0.000000
v 0.125000 2.000000 2.500000
v 0.125000 2.000000 8.000000
v 0.125000 2.000000 5.500000
v 0.125000 3.000000 -0.000000
v 0.125000 3.000000 2.500000
v 0.125000 3.000000 8.000000
v 0.125000 3.000000 5.499999
v 0.000000 0.000000 5.500000
v 0.000000 0.000000 2.500000
v 0.000000 2.000000 2.500000
v -0.000000 2.000000 5.500000
v -0.000000 3.000000 2.500000
v 0.000000 3.000000 5.500000
v 0.000000 0.000000 0.000000
v -0.000000 4.000000 -0.000000
v 0.000000 2.000000 0.000000
v 0.000000 3.000000 -0.000000
v 0.000000 0.000000 8.000000
v 0.000000 4.000000 8.000000
v 0.000000 2.000000 8.000000
v 0.000000 3.000000 8.000000
v 0.125000 3.000000 3.999999
v 0.125000 4.000000 3.999999
v 0.000000 3.000000 4.000000
vt 0.5000 0.8750
vt 0.8125 0.8750
vt 0.8125 1.0000
vt 0.5000 1.0000
vt 0.6875 0.8750
vt 1.0000 0.8750
vt 1.0000 1.0000
vt 0.6875 1.0000
vt 0.6875 0.5000
vt 1.0000 0.5000
vt 1.0000 0.7500
vt 0.6875 0.7500
vt 0.5000 0.5000
vt 0.8125 0.5000
vt 0.8125 0.7500
vt 0.5000 0.7500
vt 0.5000 1.0000
vt 0.5000 0.8750
vt 0.8574 0.9805
vt 0.8574 0.9629
vt 0.9824 0.9629
vt 0.9824 0.9805
vt 0.6777 0.7500
vt 0.6621 0.7500
vt 0.6621 0.8750
vt 0.6777 0.8750
vt 0.6777 0.5000
vt 0.6621 0.5000
vt 0.6777 0.8750
vt 0.6621 0.8750
vt 0.6621 0.7500
vt 0.6777 0.7500
vt 0.6621 0.5000
vt 0.6777 0.5000
vt 0.5352 0.7500
vt 0.5000 0.7500
vt 0.5000 0.8750
vt 0.5352 0.8750
vt 0.5352 0.5000
vt 0.5000 0.5000
vt 0.5000 1.0000
vt 0.5352 1.0000
vt 0.5352 0.8750
vt 0.5000 0.8750
vt 0.5000 0.7500
vt 0.5352 0.7500
vt 0.5000 0.5000
vt 0.5352 0.5000
vt 0.5352 1.0000
vt 0.5000 1.0000
vt 0.7324 0.9805
vt 0.7324 0.9629
vt 1.0000 0.8750
vt 1.0000 1.0000
vn 1.0000 0.0000 -0.0000
vn 0.0000 -1.0000 0.0000
vn -0.0000 -0.0000 -1.0000
vn 0.0000 0.0000 1.0000
usemtl room-atlas
s off
f 15/1/1 16/2/1 4/3/1 3/4/1
f 14/5/1 13/6/1 7/7/1 8/8/1
f 5/9/1 6/10/1 9/11/1 10/12/1
f 1/13/1 2/14/1 12/15/1 11/16/1
f 10/12/1 9/11/1 13/6/1 14/5/1
f 11/16/1 12/15/1 16/2/1 15/1/1
f 32/17/1 31/18/1 14/5/1 8/8/1
f 33/19/2 31/20/2 16/21/2 22/22/2
f 12/23/3 20/24/3 22/25/3 16/26/3
f 2/27/3 17/28/3 20/24/3 12/23/3
f 14/29/4 21/30/4 19/31/4 10/32/4
f 10/32/4 19/31/4 18/33/4 5/34/4
f 9/35/3 25/36/3 26/37/3 13/38/3
f 6/39/3 23/40/3 25/36/3 9/35/3
f 13/38/3 26/37/3 24/41/3 7/42/3
f 15/43/4 30/44/4 29/45/4 11/46/4
f 11/46/4 29/45/4 27/47/4 1/48/4
f 3/49/4 28/50/4 30/44/4 15/43/4
f 21/51/2 14/52/2 31/20/2 33/19/2
f 4/3/1 16/2/1 31/53/1 32/54/1
