# Blender v2.77 (sub 0) OBJ File: 'ghost-train-build-kit.blend'
# www.blender.org
mtllib wall_door-frame.mtl
o wall_door-frame_Cube.028
v 0.250000 0.000000 -36.000000
v 0.250000 0.000000 -32.000000
v -0.250000 0.000000 -32.000000
v -0.250000 0.000000 -36.000000
v 0.250000 8.000000 -36.000000
v 0.250000 8.000000 -31.999998
v -0.250000 8.000000 -32.000000
v -0.250000 8.000000 -36.000000
v 0.250000 0.000000 -26.000000
v 0.250000 0.000000 -22.000000
v -0.250000 0.000000 -22.000000
v -0.250000 0.000000 -26.000000
v 0.250000 8.000000 -26.000000
v 0.250000 8.000000 -21.999998
v -0.250000 8.000000 -22.000000
v -0.250000 8.000000 -26.000000
v 0.250000 6.000000 -32.000000
v 0.250000 6.000000 -29.000000
v -0.250000 6.000000 -29.000000
v -0.250000 6.000000 -32.000000
v 0.250000 8.000000 -32.000000
v 0.250000 8.000000 -29.000000
v -0.250000 8.000000 -29.000000
v -0.250000 8.000000 -32.000000
v 0.250000 6.000000 -29.000000
v 0.250000 6.000000 -26.000000
v -0.250000 6.000000 -26.000000
v -0.250000 6.000000 -29.000000
v 0.250000 8.000000 -29.000000
v 0.250000 8.000000 -26.000000
v -0.250000 8.000000 -26.000000
v -0.250000 8.000000 -29.000000
vt 0.5846 0.0020
vt 0.5846 2.0020
vt 0.4596 2.0020
vt 0.4596 0.0020
vt 0.5846 2.0020
vt 0.5846 0.0020
vt 0.4596 0.0020
vt 0.4596 2.0020
vt 0.5846 0.0020
vt 0.5846 2.0020
vt 0.4596 2.0020
vt 0.4596 0.0020
vt 0.5846 2.0020
vt 0.5846 0.0020
vt 0.4596 0.0020
vt 0.4596 2.0020
vt 1.0000 0.4692
vt 0.5000 0.4692
vt 0.5000 0.5005
vt 1.0000 0.5005
vt 1.0000 1.0005
vt 1.0000 1.0317
vt 0.5000 1.0317
vt 0.5000 1.0005
vt 1.0000 0.5005
vt 0.5000 0.5005
vt 0.5000 0.0020
vt 0.5000 2.0020
vt 0.3750 2.0020
vt 0.3750 0.0020
vt 0.5000 1.0005
vt 1.0000 1.0005
vt 1.1250 2.0020
vt 1.1250 0.0020
vt 1.0000 0.0020
vt 1.0000 2.0020
vt 0.5000 0.4692
vt 0.0000 0.4692
vt 0.0000 0.5005
vt 0.5000 0.5005
vt 0.5000 1.0005
vt 0.5000 1.0317
vt 0.0000 1.0317
vt 0.0000 1.0005
vt 0.5000 0.5005
vt 0.0000 0.5005
vt 0.0000 0.0020
vt 0.0000 2.0020
vt -0.1250 2.0020
vt -0.1250 0.0020
vt 0.0000 1.0005
vt 0.5000 1.0005
vt 0.6250 2.0020
vt 0.6250 0.0020
vt 0.5000 0.0020
vt 0.5000 2.0020
vt 1.5221 0.0020
vt 0.5221 0.0020
vt 0.5221 0.1270
vt 1.5221 0.1270
vt 1.5221 0.8770
vt 1.5221 1.0020
vt 0.5221 1.0020
vt 0.5221 0.8770
vt 1.0000 0.0020
vt 1.0000 2.0020
vt -0.0000 2.0020
vt -0.0000 0.0020
vt -0.0000 0.0020
vt -0.0000 2.0020
vt 1.0000 2.0020
vt 1.0000 0.0020
vt 1.5221 0.0020
vt 0.5221 0.0020
vt 0.5221 0.1270
vt 1.5221 0.1270
vt 1.5221 0.8770
vt 1.5221 1.0020
vt 0.5221 1.0020
vt 0.5221 0.8770
vt 1.0000 0.0020
vt 1.0000 2.0020
vt -0.0000 2.0020
vt -0.0000 0.0020
vt -0.0000 0.0020
vt -0.0000 2.0020
vt 1.0000 2.0020
vt 1.0000 0.0020
vn 0.0000 -0.0000 1.0000
vn 0.0000 0.0000 -1.0000
vn 0.0000 -1.0000 0.0000
vn 0.0000 1.0000 0.0000
vn 1.0000 0.0000 0.0000
vn -1.0000 -0.0000 -0.0000
usemtl wall-material
s off
f 2/1/1 6/2/1 7/3/1 3/4/1
f 5/5/2 1/6/2 4/7/2 8/8/2
f 10/9/1 14/10/1 15/11/1 11/12/1
f 13/13/2 9/14/2 12/15/2 16/16/2
f 17/17/3 18/18/3 19/19/3 20/20/3
f 21/21/4 24/22/4 23/23/4 22/24/4
f 17/25/5 21/21/5 22/24/5 18/26/5
f 18/27/1 22/28/1 23/29/1 19/30/1
f 19/19/6 23/31/6 24/32/6 20/20/6
f 21/33/2 17/34/2 20/35/2 24/36/2
f 25/37/3 26/38/3 27/39/3 28/40/3
f 29/41/4 32/42/4 31/43/4 30/44/4
f 25/45/5 29/41/5 30/44/5 26/46/5
f 26/47/1 30/48/1 31/49/1 27/50/1
f 27/39/6 31/51/6 32/52/6 28/40/6
f 29/53/2 25/54/2 28/55/2 32/56/2
usemtl wall-material_Diffuse.jpg
f 1/57/3 2/58/3 3/59/3 4/60/3
f 5/61/4 8/62/4 7/63/4 6/64/4
f 1/65/5 5/66/5 6/67/5 2/68/5
f 3/69/6 7/70/6 8/71/6 4/72/6
f 9/73/3 10/74/3 11/75/3 12/76/3
f 13/77/4 16/78/4 15/79/4 14/80/4
f 9/81/5 13/82/5 14/83/5 10/84/5
f 11/85/6 15/86/6 16/87/6 12/88/6
