# Blender v2.77 (sub 0) OBJ File: 'ghost-train-build-kit.blend'
# www.blender.org
mtllib wall_default_8x4.mtl
o wall_default_8x4_Cube.037
v 0.250000 0.000000 -21.000000
v -0.250000 0.000000 -21.000002
v 0.250000 8.000000 -20.999998
v -0.250000 8.000000 -21.000000
v 0.250000 0.000000 -5.000000
v -0.250000 0.000000 -5.000001
v 0.250000 8.000000 -4.999998
v -0.250000 8.000000 -5.000002
vt 4.0000 2.0020
vt 0.0000 2.0020
vt 0.0000 0.0020
vt 4.0000 0.0020
vt 0.0000 0.0020
vt 0.0000 2.0020
vt 4.0000 2.0020
vt 4.0000 0.0020
vt 0.5846 2.0020
vt 0.5846 0.0020
vt 0.4596 0.0020
vt 0.4596 2.0020
vt 1.5221 0.0020
vt -0.4779 0.0020
vt -0.4779 -0.1230
vt 1.5221 -0.1230
vt 0.5846 2.0020
vt 0.5846 0.0020
vt 0.4596 0.0020
vt 0.4596 2.0020
vt 0.5846 2.0020
vt 0.4596 2.0020
vn 1.0000 0.0000 0.0000
vn -1.0000 -0.0000 -0.0000
vn 0.0000 -1.0000 0.0000
vn 0.0000 1.0000 0.0000
vn 0.0000 0.0000 -1.0000
vn -0.0000 -0.0000 1.0000
usemtl wall-material
s off
f 3/1/1 7/2/1 5/3/1 1/4/1
f 6/5/2 8/6/2 4/7/2 2/8/2
f 1/9/3 5/10/3 6/11/3 2/12/3
f 4/13/4 8/14/4 7/15/4 3/16/4
f 3/17/5 1/18/5 2/19/5 4/20/5
f 5/10/6 7/21/6 8/22/6 6/11/6
