# Blender v2.76 (sub 0) OBJ File: 'ghost-train-build-kit.blend'
# www.blender.org
mtllib wall_door-frame.mtl
o wall_door-frame_Cube.028
v 0.250000 0.000000 -14.000000
v 0.250000 0.000000 -10.000000
v -0.250000 0.000000 -10.000000
v -0.250000 0.000000 -14.000000
v 0.250000 8.000000 -13.999999
v 0.250000 8.000000 -9.999998
v -0.250000 8.000000 -10.000000
v -0.250000 8.000000 -14.000000
v 0.250000 0.000000 -4.000000
v 0.250000 0.000000 0.000000
v -0.250000 0.000000 0.000000
v -0.250000 0.000000 -4.000000
v 0.250000 8.000000 -3.999999
v 0.250000 8.000000 0.000002
v -0.250000 8.000000 -0.000001
v -0.250000 8.000000 -4.000000
v 0.250000 6.000000 -10.000000
v 0.250000 6.000000 -7.000000
v -0.250000 6.000000 -7.000000
v -0.250000 6.000000 -10.000000
v 0.250000 8.000000 -10.000000
v 0.250000 8.000000 -6.999999
v -0.250000 8.000000 -7.000000
v -0.250000 8.000000 -10.000000
v 0.250000 6.000000 -7.000000
v 0.250000 6.000000 -4.000000
v -0.250000 6.000000 -4.000000
v -0.250000 6.000000 -7.000000
v 0.250000 8.000000 -7.000000
v 0.250000 8.000000 -3.999999
v -0.250000 8.000000 -4.000000
v -0.250000 8.000000 -7.000000
vt 0.250000 0.500499
vt 0.250000 1.000000
vt 0.000000 1.000000
vt 0.000000 0.500499
vt 0.177411 0.500499
vt 0.177411 1.000000
vt 0.146161 1.000000
vt 0.146161 0.500499
vt 0.500000 0.867320
vt 0.375000 0.867320
vt 0.375000 0.875125
vt 0.500000 0.875125
vt 0.500000 1.000000
vt 0.375000 1.000000
vt 0.250000 0.867320
vt 0.250000 0.875125
vn 1.000000 0.000000 0.000000
vn -0.000000 -0.000000 1.000000
vn -1.000000 -0.000000 -0.000000
vn 0.000000 0.000000 -1.000000
vn 0.000000 -1.000000 0.000000
usemtl room-atlas
s off
f 1/1/1 5/2/1 6/3/1 2/4/1
f 2/5/2 6/6/2 7/7/2 3/8/2
f 3/4/3 7/3/3 8/2/3 4/1/3
f 9/1/1 13/2/1 14/3/1 10/4/1
f 11/4/3 15/3/3 16/2/3 12/1/3
f 13/6/4 9/5/4 12/8/4 16/7/4
f 17/9/5 18/10/5 19/11/5 20/12/5
f 17/12/1 21/13/1 22/14/1 18/11/1
f 19/11/3 23/14/3 24/13/3 20/12/3
f 25/10/5 26/15/5 27/16/5 28/11/5
f 25/11/1 29/14/1 30/2/1 26/16/1
f 27/16/3 31/2/3 32/14/3 28/11/3
l 1 4
l 5 8
l 10 11
l 14 15
l 21 24
l 22 23
l 29 32
l 30 31
