# Blender v2.76 (sub 0) OBJ File: 'ghost-train-build-kit.blend'
# www.blender.org
mtllib wall_default_1x4-2.mtl
o wall_default_1x4-2_Cube.017
v 0.250000 0.000000 -1.000000
v 0.250000 0.000000 1.000000
v -0.250000 0.000000 1.000000
v -0.250000 0.000000 -1.000000
v 0.250000 8.000000 -0.999999
v 0.250000 8.000000 1.000001
v -0.250000 8.000000 1.000000
v -0.250000 8.000000 -1.000000
vt 1.000002 -0.123000
vt 0.500003 -0.123000
vt 0.500003 0.002000
vt 1.000002 0.002000
vt 1.000002 2.002000
vt 1.000002 2.127000
vt 0.500003 2.127000
vt 0.500002 2.002000
vt 0.375002 2.002000
vt 0.375002 0.002000
vt 1.125002 2.002000
vt 1.125002 0.002000
vn 0.000000 -1.000000 0.000000
vn 0.000000 1.000000 0.000000
vn 1.000000 0.000000 0.000000
vn -0.000000 -0.000000 1.000000
vn -1.000000 -0.000000 -0.000000
vn 0.000000 0.000000 -1.000000
usemtl wall-material
s off
f 1/1/1 2/2/1 3/3/1 4/4/1
f 5/5/2 8/6/2 7/7/2 6/8/2
f 1/4/3 5/5/3 6/8/3 2/3/3
f 2/3/4 6/8/4 7/9/4 3/10/4
f 3/3/5 7/8/5 8/5/5 4/4/5
f 5/11/6 1/12/6 4/4/6 8/5/6
