# Blender v2.76 (sub 0) OBJ File: 'ghost-train-build-kit.blend'
# www.blender.org
mtllib wall_default_2x4.mtl
o wall_default_2x4_Cube.010
v 0.250000 0.000000 -2.000000
v 0.250000 0.000000 2.000000
v -0.250000 0.000000 2.000000
v -0.250000 0.000000 -2.000000
v 0.250000 8.000000 -1.999999
v 0.250000 8.000000 2.000001
v -0.250000 8.000000 1.999999
v -0.250000 8.000000 -2.000000
vt 0.584647 0.002000
vt 0.584647 2.002000
vt 0.459647 2.002000
vt 0.459647 0.002000
vt 1.522147 0.002000
vt 0.522148 0.002000
vt 0.522148 0.127000
vt 1.522147 0.127000
vt 1.522147 0.877000
vt 1.522147 1.002000
vt 0.522148 1.002000
vt 0.522147 0.877000
vt 0.999980 0.002000
vt 0.999980 2.002000
vt -0.000019 2.002000
vt -0.000019 0.002000
vn -0.000000 -0.000000 1.000000
vn 0.000000 0.000000 -1.000000
vn 0.000000 -1.000000 0.000000
vn 0.000000 1.000000 0.000000
vn 1.000000 0.000000 0.000000
vn -1.000000 -0.000000 -0.000000
usemtl wall-material
s off
f 2/1/1 6/2/1 7/3/1 3/4/1
f 5/2/2 1/1/2 4/4/2 8/3/2
usemtl wall-material_Diffuse.jpg
f 1/5/3 2/6/3 3/7/3 4/8/3
f 5/9/4 8/10/4 7/11/4 6/12/4
f 1/13/5 5/14/5 6/15/5 2/16/5
f 3/16/6 7/15/6 8/14/6 4/13/6
