# Blender v2.78 (sub 0) OBJ File: 'ghost-train-build-kit.blend'
# www.blender.org
mtllib wall_divider_4x8_S.mtl
o wall_divider_4x8_S_Cube.046
v 0.000001 0.000000 2.600000
v 4.000000 0.000000 2.600000
v 0.000002 4.000000 2.600000
v 4.000001 4.000000 2.600000
v 0.000001 0.000000 1.500000
v 4.000000 0.000000 1.500000
v 0.000002 4.000000 1.500000
v 4.000001 4.000000 1.500000
v 0.000000 0.000000 4.000000
v 4.000000 0.000000 0.000000
v 0.000000 0.000000 -0.000000
v 4.000000 0.000000 4.000000
v 8.000000 0.000000 0.000000
v 8.000000 0.000000 1.500000
v 8.000001 4.000000 1.500000
v 8.000000 0.000000 2.600000
v 8.000001 4.000000 2.600000
v 8.000000 0.000000 3.999999
v 8.000000 4.000000 3.999998
v 8.000000 4.000000 -0.000001
vt 1.0000 0.5000
vt 0.5000 0.5000
vt 0.5000 1.0000
vt 1.0000 1.0000
vt 1.0000 0.5000
vt 1.0000 1.0000
vt 0.5000 1.0000
vt 0.5000 0.5000
vt 0.0000 0.2500
vt 0.2500 0.2500
vt 0.2500 0.5000
vt 0.0000 0.5000
vt 0.0000 0.2500
vt 0.2500 0.2500
vt 0.2500 0.5000
vt 0.0000 0.5000
vt 1.0000 0.5000
vt 1.0000 1.0000
vt 0.5000 1.0000
vt 0.5000 0.5000
vt 1.0000 0.5000
vt 0.5000 0.5000
vt 0.5000 1.0000
vt 1.0000 1.0000
vt 1.0000 0.5000
vt 1.0000 1.0000
vt 0.5000 1.0000
vt 0.5000 0.5000
vt 0.8750 1.0000
vt 0.8750 0.5000
vn 0.0000 0.0000 1.0000
vn 0.0000 -0.0000 -1.0000
vn 0.0000 1.0000 0.0000
vn -1.0000 0.0000 0.0000
usemtl room-atlas
s off
f 1/1/1 2/2/1 4/3/1 3/4/1
f 5/5/2 7/6/2 8/7/2 6/8/2
f 12/9/3 10/10/3 11/11/3 9/12/3
f 18/13/3 13/14/3 10/15/3 12/16/3
f 6/17/2 8/18/2 15/19/2 14/20/2
f 2/21/1 16/22/1 17/23/1 4/24/1
f 18/25/4 19/26/4 20/27/4 13/28/4
f 3/29/4 7/6/4 5/5/4 1/30/4
