# Blender v2.76 (sub 0) OBJ File: 'ghost-train-build-kit.blend'
# www.blender.org
mtllib floor-default-8x8.mtl
o floor-default-8x8_Plane.007
v 16.000000 0.000000 0.000000
v 16.000000 0.000000 -16.000000
v 0.000000 0.000000 0.000000
v 0.000000 0.000000 -16.000000
v 8.000000 0.000000 0.000000
v 8.000000 0.000000 -16.000000
v 16.000000 0.000000 -8.000000
v 0.000000 0.000000 -8.000000
v 8.000000 0.000000 -8.000000
vt 0.500000 0.500050
vt 0.500000 1.000000
vt 0.999950 1.000000
vt 0.999950 0.500050
vt 0.500050 1.000000
vt 1.000000 1.000000
vt 1.000000 0.500050
vt 0.500050 0.500050
vt 1.000000 0.500050
vn 0.000000 1.000000 0.000000
usemtl room-atlas
s off
f 9/1/1 6/2/1 4/3/1 8/4/1
f 7/1/1 2/5/1 6/6/1 9/7/1
f 1/8/1 7/2/1 9/6/1 5/9/1
f 5/8/1 9/2/1 8/3/1 3/4/1
