# Blender v2.76 (sub 0) OBJ File: 'monster-popup.blend'
# www.blender.org
mtllib monster-popup.mtl
o Cube
v -0.000000 0.000000 0.000000
v -1.786893 2.480371 0.000000
v -1.993591 2.087645 0.000000
v -2.220958 1.870613 0.000000
v -2.293302 1.508892 0.000000
v -2.624018 1.095497 0.000000
v 2.500000 0.000000 0.000000
v -2.500000 0.000000 0.000000
v -1.828233 2.852426 0.000000
v -2.034930 3.162472 0.000000
v -1.900577 3.462184 0.000000
v -2.107275 3.916918 -0.000000
v -2.179619 4.516341 -0.000000
v -2.541339 4.919401 -0.000000
v -2.603349 5.487820 -0.000000
v -2.406986 5.704852 -0.000000
v -2.313972 6.242266 -0.000000
v -2.086605 6.417958 -0.000000
v -1.962586 6.552312 -0.000000
v -1.786893 6.572981 -0.000000
v -1.311489 6.831353 -0.000000
v -0.412354 6.821018 -0.000000
v -0.236662 6.510972 -0.000000
v 0.166399 6.459298 -0.000000
v 0.393766 5.983893 -0.000000
v 0.280082 5.343131 -0.000000
v 0.476445 5.229447 -0.000000
v 0.817496 5.353466 -0.000000
v 2.254044 4.929736 -0.000000
v 2.657104 3.916918 -0.000000
v 2.481411 3.255486 0.000000
v 1.695961 3.296826 0.000000
v 0.672808 3.596537 -0.000000
v 0.466110 4.009932 -0.000000
v -0.009294 3.854909 -0.000000
v 0.207738 3.524193 -0.000000
v -0.019629 2.831756 0.000000
v 0.145729 2.707737 0.000000
v 0.414436 3.379505 0.000000
v 0.827831 3.410509 0.000000
v 1.261896 3.203812 0.000000
v 1.633951 2.573384 0.000000
v 1.106872 1.033488 0.000000
v 0.187068 1.085162 0.000000
v -0.474364 1.477887 0.000000
v -0.484699 1.209180 0.000000
v -0.081638 0.888799 0.000000
v 2.502081 0.878464 0.000000
v -0.000000 0.000000 0.200470
v -1.786893 2.480371 0.200470
v -1.993591 2.087645 0.200470
v -2.220958 1.870613 0.200470
v -2.293302 1.508892 0.200470
v -2.624018 1.095497 0.200470
v 2.500000 0.000000 0.200470
v -2.500000 0.000000 0.200470
v -1.828233 2.852426 0.200470
v -2.034930 3.162472 0.200470
v -1.900577 3.462184 0.200470
v -2.107275 3.916918 0.200470
v -2.179619 4.516341 0.200470
v -2.541339 4.919401 0.200470
v -2.603349 5.487820 0.200470
v -2.406986 5.704852 0.200470
v -2.313972 6.242266 0.200470
v -2.086605 6.417958 0.200470
v -1.962586 6.552312 0.200470
v -1.786893 6.572981 0.200470
v -1.311489 6.831353 0.200470
v -0.412354 6.821018 0.200470
v -0.236662 6.510972 0.200470
v 0.166399 6.459298 0.200470
v 0.393766 5.983893 0.200470
v 0.280082 5.343131 0.200470
v 0.476445 5.229447 0.200470
v 0.817496 5.353466 0.200470
v 2.254044 4.929736 0.200470
v 2.657104 3.916918 0.200470
v 2.481411 3.255486 0.200470
v 1.695961 3.296826 0.200470
v 0.672808 3.596537 0.200470
v 0.466110 4.009932 0.200470
v -0.009294 3.854909 0.200470
v 0.207738 3.524193 0.200470
v -0.019629 2.831756 0.200470
v 0.145729 2.707737 0.200470
v 0.414436 3.379505 0.200470
v 0.827831 3.410509 0.200470
v 1.261896 3.203812 0.200470
v 1.633951 2.573384 0.200470
v 1.106872 1.033488 0.200470
v 0.187068 1.085162 0.200470
v -0.474364 1.477887 0.200470
v -0.484699 1.209180 0.200470
v -0.081638 0.888799 0.200470
v 2.502081 0.878464 0.200470
vt 0.477027 0.579121
vt 0.532189 0.789947
vt 0.569620 0.773843
vt 0.019972 0.841190
vt -0.005639 0.729920
vt -0.017460 0.810444
vt 0.063313 0.672821
vt 0.077104 0.587905
vt 0.081044 0.942211
vt 0.037703 0.917322
vt 0.138176 0.964172
vt 0.104685 0.961244
vt 0.400195 0.999310
vt 0.433686 0.955388
vt 0.228799 1.000774
vt 0.553860 0.880720
vt 0.510518 0.948068
vt 0.116505 0.523486
vt 0.130296 0.437106
vt 0.090894 0.481028
vt 0.098775 0.328764
vt 0.041643 0.246776
vt 0.055433 0.298018
vt 0.138176 0.384399
vt 0.388374 0.242384
vt 0.002241 0.033021
vt -0.021399 0.188213
vt 0.475057 0.434177
vt 0.386404 0.204318
vt 0.478799 0.033021
vt 0.955356 0.033021
vt 0.955753 0.157467
vt 0.506578 0.416609
vt 0.514458 0.186749
vt 0.463237 0.158932
vt 0.689794 0.179428
vt 0.790268 0.397576
vt 0.719345 0.486884
vt 0.636602 0.516166
vt 0.557800 0.511773
vt 0.518399 0.532270
vt 0.567650 0.601082
vt 0.802088 0.500061
vt 0.607051 0.542519
vt 0.908472 0.731384
vt 0.985304 0.587905
vt 0.951813 0.494204
vt 0.634632 0.791412
vt 0.624578 -0.002810
vt 0.588161 -0.002810
vt 0.588161 0.038934
vt 0.624578 0.038934
vt 0.058541 -0.002808
vt 0.022963 -0.002808
vt 0.022963 0.038937
vt 0.058541 0.038936
vt 0.387933 -0.002810
vt 0.372772 -0.002810
vt 0.372772 0.038934
vt 0.387933 0.038934
vt 0.989597 -0.002808
vt 0.973576 -0.002808
vt 0.973576 0.038936
vt 0.989597 0.038936
vt 0.639010 -0.002810
vt 0.639010 0.038934
vt 0.354798 -0.002810
vt 0.354798 0.038935
vt 1.019113 -0.002808
vt 1.019113 0.038937
vt 0.655468 -0.002810
vt 0.655468 0.038934
vt 0.342069 -0.002810
vt 0.342069 0.038935
vt 1.027484 -0.002807
vt 1.027484 0.038937
vt 0.676810 -0.002810
vt 0.676810 0.038934
vt 0.327129 -0.002809
vt 0.327129 0.038935
vt 1.056786 -0.002807
vt 1.056786 0.038937
vt 0.703166 -0.002810
vt 0.703166 0.038934
vt 0.305688 -0.002809
vt 0.305688 0.038935
vt 1.073575 -0.002807
vt 1.073575 0.038937
vt 0.712355 -0.002809
vt 0.712355 0.038935
vt 0.261038 -0.002809
vt 0.261038 0.038935
vt 1.093046 -0.002807
vt 1.093046 0.038937
vt 0.727052 -0.002809
vt 0.727052 0.038935
vt 0.159789 -0.002808
vt 0.159789 0.038936
vt 1.122693 -0.002806
vt 1.122693 0.038938
vt 0.517952 -0.002810
vt 0.506099 -0.002810
vt 0.506099 0.038934
vt 0.517952 0.038934
vt 0.787710 -0.002809
vt 0.787710 0.038935
vt 1.188610 -0.002806
vt 1.188610 0.038938
vt 0.482942 -0.002810
vt 0.482942 0.038934
vt 0.831857 -0.002809
vt 0.831857 0.038935
vt 0.540041 -0.002810
vt 0.540041 0.038934
vt 0.461008 -0.002810
vt 0.461008 0.038934
vt 0.859574 -0.002809
vt 0.859574 0.038935
vt 0.551678 -0.002810
vt 0.551678 0.038934
vt 0.436556 -0.002810
vt 0.436556 0.038934
vt 0.891428 -0.002809
vt 0.891428 0.038936
vt 0.559083 -0.002810
vt 0.559083 0.038934
vt 0.416326 -0.002810
vt 0.416326 0.038934
vt 0.934607 -0.002808
vt 0.934607 0.038936
vt 0.566247 -0.002810
vt 0.566247 0.038934
vt 0.403024 -0.002810
vt 0.403024 0.038934
vt 0.953325 -0.002808
vt 0.953325 0.038936
vt -0.081676 -0.002807
vt -0.081676 0.038937
vn -0.000000 -0.000000 -1.000000
vn 0.000000 0.000000 1.000000
vn 0.011500 0.999900 0.000000
vn 1.000000 -0.002400 0.000000
vn -0.993900 -0.110400 0.000000
vn 0.836000 0.548700 0.000000
vn 0.870000 0.493000 0.000000
vn -0.884900 0.465700 0.000000
vn 0.950100 -0.312000 0.000000
vn 0.127200 0.991900 0.000000
vn -0.690500 0.723400 0.000000
vn 0.600000 0.800000 0.000000
vn 0.902100 0.431500 0.000000
vn -0.980600 0.196100 0.000000
vn -0.928500 0.371400 0.000000
vn 0.984600 -0.174700 0.000000
vn -0.780900 0.624700 0.000000
vn -0.074800 0.997200 0.000000
vn 0.501000 0.865400 0.000000
vn -0.993700 -0.112500 0.000000
vn 0.429900 0.902900 0.000000
vn -0.341700 0.939800 0.000000
vn 0.000000 -1.000000 0.000000
vn 0.861200 0.508300 0.000000
vn -0.741500 0.670900 0.000000
vn 0.282900 0.959100 0.000000
vn 0.946100 -0.323800 0.000000
vn -0.994100 -0.108400 0.000000
vn 0.929100 0.369800 0.000000
vn -0.985400 0.170500 0.000000
vn -0.056100 -0.998400 0.000000
vn -0.744200 -0.667900 0.000000
vn 0.966500 -0.256700 0.000000
vn -0.611400 0.791300 0.000000
vn -0.510500 -0.859900 0.000000
vn -0.992800 -0.119800 0.000000
vn -0.052600 -0.998600 0.000000
vn -0.734800 0.678300 0.000000
vn 0.999300 -0.038400 0.000000
vn -0.910400 -0.413800 0.000000
vn -0.281100 -0.959700 0.000000
vn -0.116800 0.993200 0.000000
vn 0.622200 0.782800 0.000000
vn -0.912500 0.409100 0.000000
vn -0.894400 -0.447200 0.000000
vn -0.477500 0.878600 0.000000
vn 0.004000 1.000000 0.000000
vn -0.832100 -0.554700 0.000000
vn 0.310000 -0.950700 0.000000
usemtl Material
s off
f 35/1/1 26/2/1 27/3/1
f 16/4/1 14/5/1 15/6/1
f 13/7/1 35/1/1 12/8/1
f 16/4/1 13/7/1 14/5/1
f 18/9/1 16/4/1 17/10/1
f 20/11/1 18/9/1 19/12/1
f 22/13/1 23/14/1 21/15/1
f 25/16/1 23/14/1 24/17/1
f 23/14/1 20/11/1 21/15/1
f 20/11/1 16/4/1 18/9/1
f 16/4/1 20/11/1 26/2/1
f 11/18/1 9/19/1 10/20/1
f 3/21/1 5/22/1 4/23/1
f 16/4/1 26/2/1 13/7/1
f 2/24/1 45/25/1 3/21/1
f 12/8/1 35/1/1 11/18/1
f 5/22/1 8/26/1 6/27/1
f 11/18/1 35/1/1 37/28/1
f 3/21/1 45/25/1 5/22/1
f 8/26/1 46/29/1 1/30/1
f 7/31/1 1/30/1 48/32/1
f 45/25/1 38/33/1 44/34/1
f 1/30/1 47/35/1 48/32/1
f 44/34/1 38/33/1 43/36/1
f 1/30/1 46/29/1 47/35/1
f 43/36/1 38/33/1 42/37/1
f 8/26/1 5/22/1 46/29/1
f 23/14/1 26/2/1 20/11/1
f 5/22/1 45/25/1 46/29/1
f 42/37/1 38/33/1 41/38/1
f 40/39/1 38/33/1 39/40/1
f 37/28/1 35/1/1 36/41/1
f 41/38/1 38/33/1 40/39/1
f 34/42/1 32/43/1 33/44/1
f 45/25/1 37/28/1 38/33/1
f 34/42/1 29/45/1 32/43/1
f 45/25/1 2/24/1 37/28/1
f 32/43/1 30/46/1 31/47/1
f 2/24/1 9/19/1 37/28/1
f 32/43/1 29/45/1 30/46/1
f 9/19/1 11/18/1 37/28/1
f 35/1/1 27/3/1 34/42/1
f 29/45/1 34/42/1 28/48/1
f 26/2/1 23/14/1 25/16/1
f 34/42/1 27/3/1 28/48/1
f 26/2/1 35/1/1 13/7/1
f 83/1/2 75/3/2 74/2/2
f 64/4/2 63/6/2 62/5/2
f 61/7/2 60/8/2 83/1/2
f 64/4/2 62/5/2 61/7/2
f 66/9/2 65/10/2 64/4/2
f 68/11/2 67/12/2 66/9/2
f 70/13/2 69/15/2 71/14/2
f 73/16/2 72/17/2 71/14/2
f 71/14/2 69/15/2 68/11/2
f 68/11/2 66/9/2 64/4/2
f 64/4/2 74/2/2 68/11/2
f 59/18/2 58/20/2 57/19/2
f 51/21/2 52/23/2 53/22/2
f 64/4/2 61/7/2 74/2/2
f 50/24/2 51/21/2 93/25/2
f 60/8/2 59/18/2 83/1/2
f 53/22/2 54/27/2 56/26/2
f 59/18/2 85/28/2 83/1/2
f 51/21/2 53/22/2 93/25/2
f 56/26/2 49/30/2 94/29/2
f 55/31/2 96/32/2 49/30/2
f 93/25/2 92/34/2 86/33/2
f 49/30/2 96/32/2 95/35/2
f 92/34/2 91/36/2 86/33/2
f 49/30/2 95/35/2 94/29/2
f 91/36/2 90/37/2 86/33/2
f 56/26/2 94/29/2 53/22/2
f 71/14/2 68/11/2 74/2/2
f 53/22/2 94/29/2 93/25/2
f 90/37/2 89/38/2 86/33/2
f 88/39/2 87/40/2 86/33/2
f 85/28/2 84/41/2 83/1/2
f 89/38/2 88/39/2 86/33/2
f 82/42/2 81/44/2 80/43/2
f 93/25/2 86/33/2 85/28/2
f 82/42/2 80/43/2 77/45/2
f 93/25/2 85/28/2 50/24/2
f 80/43/2 79/47/2 78/46/2
f 50/24/2 85/28/2 57/19/2
f 80/43/2 78/46/2 77/45/2
f 57/19/2 85/28/2 59/18/2
f 83/1/2 82/42/2 75/3/2
f 77/45/2 76/48/2 82/42/2
f 74/2/2 73/16/2 71/14/2
f 82/42/2 76/48/2 75/3/2
f 74/2/2 61/7/2 83/1/2
f 22/49/3 21/50/3 69/51/3 70/52/3
f 7/53/4 48/54/4 96/55/4 55/56/4
f 9/57/5 2/58/5 50/59/5 57/60/5
f 36/61/6 35/62/6 83/63/6 84/64/6
f 23/65/7 22/49/7 70/52/7 71/66/7
f 2/58/8 3/67/8 51/68/8 50/59/8
f 37/69/9 36/61/9 84/64/9 85/70/9
f 24/71/10 23/65/10 71/66/10 72/72/10
f 3/67/11 4/73/11 52/74/11 51/68/11
f 38/75/12 37/69/12 85/70/12 86/76/12
f 25/77/13 24/71/13 72/72/13 73/78/13
f 4/73/14 5/79/14 53/80/14 52/74/14
f 39/81/15 38/75/15 86/76/15 87/82/15
f 26/83/16 25/77/16 73/78/16 74/84/16
f 5/79/17 6/85/17 54/86/17 53/80/17
f 40/87/18 39/81/18 87/82/18 88/88/18
f 27/89/19 26/83/19 74/84/19 75/90/19
f 6/85/20 8/91/20 56/92/20 54/86/20
f 41/93/21 40/87/21 88/88/21 89/94/21
f 28/95/22 27/89/22 75/90/22 76/96/22
f 1/97/23 7/53/23 55/56/23 49/98/23
f 42/99/24 41/93/24 89/94/24 90/100/24
f 16/101/25 15/102/25 63/103/25 64/104/25
f 29/105/26 28/95/26 76/96/26 77/106/26
f 8/91/23 1/97/23 49/98/23 56/92/23
f 43/107/27 42/99/27 90/100/27 91/108/27
f 15/102/28 14/109/28 62/110/28 63/103/28
f 30/111/29 29/105/29 77/106/29 78/112/29
f 17/113/30 16/101/30 64/104/30 65/114/30
f 44/34/31 43/36/31 91/36/31 92/34/31
f 14/109/32 13/115/32 61/116/32 62/110/32
f 31/117/33 30/111/33 78/112/33 79/118/33
f 18/119/34 17/113/34 65/114/34 66/120/34
f 45/25/35 44/34/35 92/34/35 93/25/35
f 13/115/36 12/121/36 60/122/36 61/116/36
f 32/123/37 31/117/37 79/118/37 80/124/37
f 19/125/38 18/119/38 66/120/38 67/126/38
f 46/29/39 45/25/39 93/25/39 94/29/39
f 12/121/40 11/127/40 59/128/40 60/122/40
f 33/129/41 32/123/41 80/124/41 81/130/41
f 20/131/42 19/125/42 67/126/42 68/132/42
f 47/35/43 46/29/43 94/29/43 95/35/43
f 11/127/44 10/133/44 58/134/44 59/128/44
f 34/135/45 33/129/45 81/130/45 82/136/45
f 21/50/46 20/131/46 68/132/46 69/51/46
f 48/54/47 47/137/47 95/138/47 96/55/47
f 10/133/48 9/57/48 57/60/48 58/134/48
f 35/62/49 34/135/49 82/136/49 83/63/49
