# Blender v2.76 (sub 0) OBJ File: 'ghost-train-build-kit.blend'
# www.blender.org
mtllib ceiling-default-8x8.mtl
o ceiling-default-8x8_Plane.005
v 16.000000 8.000000 0.000000
v 16.000000 8.000000 -16.000000
v 0.000000 8.000000 0.000000
v 0.000000 8.000000 -16.000000
v 8.000000 8.000000 0.000000
v 8.000000 8.000000 -16.000000
v 16.000000 8.000000 -8.000000
v 0.000000 8.000000 -8.000000
v 8.000000 8.000000 -8.000000
vt 0.000000 0.000050
vt 0.499950 0.000050
vt 0.499950 0.500000
vt 0.000000 0.500000
vt 0.000050 0.000050
vt 0.000050 0.500000
vt 0.000050 0.000050
vt 0.500000 0.000050
vt 0.000000 0.000050
vn 0.000000 -1.000000 0.000000
usemtl room-atlas
s off
f 9/1/1 8/2/1 4/3/1 6/4/1
f 7/5/1 9/2/1 6/3/1 2/6/1
f 1/7/1 5/8/1 9/3/1 7/6/1
f 5/9/1 3/2/1 8/3/1 9/4/1
