# Blender v2.77 (sub 0) OBJ File: 'ghost-train-build-kit.blend'
# www.blender.org
mtllib pipe-1.mtl
o pipe-1_Cylinder.001
v -5.500000 0.000000 6.000000
v -5.500000 7.997645 6.000000
v -5.500000 0.000000 5.500000
v -5.500000 7.997645 5.500000
v -5.178606 0.000000 5.616978
v -5.178606 7.997645 5.616978
v -5.007596 0.000000 5.913176
v -5.007596 7.997645 5.913176
v -5.066987 0.000000 6.250000
v -5.066987 7.997645 6.250000
v -5.328990 0.000000 6.469847
v -5.328990 7.997645 6.469847
v -5.671010 0.000000 6.469847
v -5.671010 7.997645 6.469847
v -5.933013 0.000000 6.250000
v -5.933013 7.997645 6.250000
v -5.992404 0.000000 5.913176
v -5.992404 7.997645 5.913176
v -5.821394 0.000000 5.616978
v -5.821394 7.997645 5.616978
v -5.500000 0.243325 5.500000
v -5.178606 0.243325 5.616978
v -5.007596 0.243325 5.913176
v -5.066987 0.243325 6.250000
v -5.328990 0.243325 6.469847
v -5.671010 0.243325 6.469847
v -5.933013 0.243325 6.250000
v -5.992404 0.243325 5.913176
v -5.821394 0.243325 5.616978
v -5.500000 7.796254 5.500000
v -5.178606 7.796254 5.616978
v -5.007596 7.796254 5.913176
v -5.066987 7.796254 6.250000
v -5.328990 7.796254 6.469847
v -5.671010 7.796254 6.469847
v -5.933013 7.796254 6.250000
v -5.992404 7.796254 5.913176
v -5.821394 7.796254 5.616978
v -5.088761 8.000026 5.509905
v -5.500000 8.000026 5.360226
v -5.500000 7.793875 5.360226
v -4.869946 8.000026 5.888905
v -4.945939 8.000026 6.319887
v -5.281184 8.000026 6.601191
v -5.718816 8.000026 6.601191
v -6.054061 8.000026 6.319887
v -6.130054 8.000026 5.888905
v -5.911239 8.000026 5.509905
v -5.088761 7.793875 5.509905
v -4.869946 7.793875 5.888905
v -4.945939 7.793875 6.319887
v -5.281184 7.793875 6.601191
v -5.718816 7.793875 6.601191
v -6.054061 7.793875 6.319887
v -6.130054 7.793875 5.888905
v -5.911239 7.793875 5.509905
v -5.500000 0.004866 5.400000
v -5.114327 0.004866 5.540373
v -5.114327 0.238458 5.540373
v -4.909115 0.004866 5.895811
v -4.909115 0.238458 5.895811
v -4.980385 0.004866 6.299999
v -4.980385 0.238458 6.299999
v -5.294788 0.004866 6.563816
v -5.294788 0.238458 6.563816
v -5.705212 0.004866 6.563816
v -5.705212 0.238458 6.563816
v -6.019615 0.004866 6.299999
v -6.019615 0.238458 6.299999
v -6.090885 0.004866 5.895811
v -6.090885 0.238458 5.895811
v -5.885673 0.004866 5.540373
v -5.885673 0.238458 5.540373
v -5.500000 0.238458 5.400000
v -5.260586 4.420584 6.657785
v -4.893782 4.071350 6.350000
v -4.893782 4.420584 6.350000
v -4.810635 4.071350 5.878447
v -4.810635 4.420584 5.878447
v -5.050049 4.071350 5.463768
v -5.050049 4.420584 5.463768
v -5.500000 4.420584 5.299999
v -5.500000 4.071349 5.299999
v -5.178606 4.424148 5.616978
v -5.178606 4.067786 5.616978
v -5.007596 4.424148 5.913176
v -5.007596 4.067786 5.913176
v -5.066987 4.424148 6.250000
v -5.066987 4.067786 6.250000
v -5.328990 4.424148 6.469847
v -5.328990 4.067786 6.469847
v -5.671010 4.424148 6.469847
v -5.671010 4.067786 6.469847
v -5.933013 4.424148 6.250000
v -5.933013 4.067786 6.250000
v -5.992404 4.424148 5.913176
v -5.992404 4.067786 5.913176
v -5.821394 4.424148 5.616978
v -5.821394 4.067786 5.616978
v -5.500000 4.067785 5.500000
v -5.500000 4.424148 5.500000
v -5.260586 4.071350 6.657785
v -5.739414 4.420584 6.657785
v -5.739414 4.071350 6.657785
v -6.106218 4.420584 6.350000
v -6.106218 4.071350 6.350000
v -6.189365 4.420584 5.878447
v -6.189365 4.071350 5.878447
v -5.949951 4.420584 5.463768
v -5.949951 4.071350 5.463768
vt 0.0000 0.0000
vt 0.1629 0.0000
vt 0.1629 0.0417
vt 0.0000 0.0417
vt 0.0000 0.0000
vt 0.1629 0.0000
vt 0.1629 0.0417
vt 0.0000 0.0417
vt 0.0000 0.0000
vt 0.1629 0.0000
vt 0.1629 0.0417
vt 0.0000 0.0417
vt 0.0000 0.0000
vt 0.1629 0.0000
vt 0.1629 0.0417
vt 0.0000 0.0417
vt 0.0000 0.0000
vt 0.1629 0.0000
vt 0.1629 0.0417
vt 0.0000 0.0417
vt 0.0000 0.0000
vt 0.1045 0.0000
vt 0.1045 0.0417
vt 0.0000 0.0417
vt 0.0000 0.0000
vt 0.1045 0.0000
vt 0.1045 0.0417
vt 0.0000 0.0417
vt 0.0000 0.0000
vt 0.1045 0.0000
vt 0.1045 0.0417
vt 0.0000 0.0417
vt 0.0000 0.0000
vt 0.1045 0.0000
vt 0.1045 0.0417
vt 0.0000 0.0417
vt 0.0000 0.0000
vt 0.1629 0.0000
vt 0.1629 0.0417
vt 0.0000 0.0417
vt 0.0000 0.0000
vt 0.1629 0.0000
vt 0.1629 0.0417
vt 0.0000 0.0417
vt 0.0000 0.0000
vt 0.1629 0.0000
vt 0.1629 0.0417
vt 0.0000 0.0417
vt 0.0000 0.0000
vt 0.1629 0.0000
vt 0.1629 0.0417
vt 0.0000 0.0417
vt 0.0000 0.0000
vt 0.1045 0.0000
vt 0.1045 0.0417
vt 0.0000 0.0417
vt 0.0000 0.0000
vt 0.1045 0.0000
vt 0.1045 0.0417
vt 0.0000 0.0417
vt 0.0000 0.0000
vt 0.1045 0.0000
vt 0.1045 0.0417
vt 0.0000 0.0417
vt 0.0000 0.0000
vt 0.1045 0.0000
vt 0.1045 0.0417
vt 0.0000 0.0417
vt 0.0000 0.0000
vt 0.1045 0.0000
vt 0.1045 0.0417
vt 0.0000 0.0417
vt 0.0000 0.0000
vt 0.1062 0.0000
vt 0.1062 0.0417
vt 0.0000 0.0417
vt 0.0000 0.0000
vt 0.1045 0.0000
vt 0.1045 0.0417
vt 0.0000 0.0417
vt 0.0000 0.0000
vt 0.1062 0.0000
vt 0.1062 0.0417
vt 0.0000 0.0417
vt 0.0000 0.0000
vt 0.1062 0.0000
vt 0.1062 0.0417
vt 0.0000 0.0417
vt 0.0000 0.0000
vt 0.1045 0.0000
vt 0.1045 0.0417
vt 0.0000 0.0417
vt 0.0000 0.0000
vt 0.1045 0.0000
vt 0.1045 0.0417
vt 0.0000 0.0417
vt 0.0000 0.0000
vt 0.1045 0.0000
vt 0.1045 0.0417
vt 0.0000 0.0417
vt 0.0000 0.0000
vt 0.1062 0.0000
vt 0.1062 0.0417
vt 0.0000 0.0417
vt 0.0000 0.0000
vt 0.1062 0.0000
vt 0.1062 0.0417
vt 0.0000 0.0417
vt 0.0000 0.0000
vt 0.1045 0.0000
vt 0.1045 0.0417
vt 0.0000 0.0417
vt 0.0000 0.0000
vt 0.1045 0.0000
vt 0.1045 0.0417
vt 0.0000 0.0417
vt 0.0000 0.0000
vt 0.1062 0.0000
vt 0.1062 0.0417
vt 0.0000 0.0417
vt 0.0000 0.0000
vt 0.1062 0.0000
vt 0.1062 0.0417
vt 0.0000 0.0417
vt 0.0000 0.0000
vt 0.1045 0.0000
vt 0.1045 0.0417
vt 0.0000 0.0417
vt 0.0000 0.0000
vt 0.1062 0.0000
vt 0.1062 0.0417
vt 0.0000 0.0417
vt 0.0000 0.0000
vt 0.1062 0.0000
vt 0.1062 0.0417
vt 0.0000 0.0417
vt 0.0000 0.0000
vt 0.1045 0.0000
vt 0.1045 0.0417
vt 0.0000 0.0417
vt 0.0000 0.0000
vt 0.1045 0.0000
vt 0.1045 0.0417
vt 0.0000 0.0417
vt 0.0000 0.0000
vt 0.8238 0.0000
vt 0.8238 0.0417
vt 0.0000 0.0000
vt 0.8238 0.0000
vt 0.8238 0.0417
vt 0.0000 0.0000
vt 0.8238 0.0000
vt 0.8238 0.0417
vt 0.0000 0.0417
vt 0.8238 0.0000
vt 0.8238 0.0417
vt 0.8238 0.0000
vt 0.8238 0.0417
vt 0.8238 0.0000
vt 0.8238 0.0417
vt 0.8238 0.0417
vt 0.8238 0.0000
vt 0.8238 0.0417
vt 0.8238 0.0000
vt 0.8238 0.0417
vt 0.0000 0.0000
vt 0.8238 0.0000
vt 0.8238 0.0417
vt 0.0000 0.0417
vt 0.8238 0.0000
vt 0.8238 0.0417
vt 0.8238 0.0000
vt 0.8238 0.0417
vt 0.0000 0.0000
vt 0.8238 0.0000
vt 0.8238 0.0417
vt 0.0000 0.0417
vt 0.8238 0.0000
vt 0.8238 0.0417
vt 0.8238 0.0000
vt 0.8238 0.0417
vt 0.8238 0.0000
vt 0.8238 0.0417
vt 0.8238 0.0417
vt 0.0000 0.0000
vt 0.8238 0.0417
vt 0.0000 0.0417
vt 0.8238 0.0000
vt 0.8238 0.0417
vt 0.8238 0.0000
vt 0.8238 0.0417
vt 0.8238 0.0000
vt 0.8238 0.0417
vt 0.8238 0.0417
vt 0.0000 0.0000
vt 0.8238 0.0417
vt 0.0000 0.0417
vt 0.0000 0.0000
vt 0.8238 0.0417
vt 0.0000 0.0417
vt 0.0000 0.0000
vt 0.8238 0.0417
vt 0.0000 0.0417
vt 0.0000 0.0000
vt 0.8238 0.0417
vt 0.0000 0.0417
vt 0.0000 0.0000
vt 0.8238 0.0417
vt 0.0000 0.0417
vt 0.0000 0.0417
vt 0.8238 0.0417
vt 0.8238 0.0834
vt 0.0000 0.0834
vt 0.8238 0.0000
vt 0.0000 -0.0417
vt 0.8238 -0.0417
vt 0.0000 -0.0834
vt 0.8238 -0.0834
vt 0.0000 -0.1251
vt 0.8238 -0.1251
vt 0.0000 -0.1668
vt 0.8238 -0.1668
vt 0.0000 0.1668
vt 0.8238 0.1668
vt 0.8238 0.2085
vt 0.0000 0.2085
vt 0.0000 -0.0834
vt 0.8238 -0.0834
vt 0.8238 -0.0417
vt 0.0000 -0.0417
vt 0.0000 0.1251
vt 0.8238 0.1251
vt 0.0000 -0.0834
vt 0.1084 -0.0834
vt 0.1084 -0.0417
vt 0.0000 -0.0417
vt 0.1084 0.0000
vt 0.0000 0.0000
vt 0.1084 0.0417
vt 0.1084 0.0834
vt 0.0000 0.0834
vt 0.1084 0.1251
vt 0.0000 0.1251
vt 0.1084 0.1668
vt 0.0000 0.1668
vt 0.1084 0.2085
vt 0.0000 0.2085
vt 0.0000 -0.1668
vt 0.1084 -0.1668
vt 0.1084 -0.1251
vt 0.0000 -0.1251
vt 0.0000 0.0000
vt 0.8238 0.0417
vt 0.0000 0.0417
vt 0.0000 0.0000
vt 0.8238 0.0417
vt 0.0000 0.0417
vt 0.0000 0.0000
vt 0.8238 0.0417
vt 0.0000 0.0417
vt 0.0000 0.0000
vt 0.8238 0.0417
vt 0.0000 0.0417
vt 0.0000 0.0000
vt 0.8238 0.0417
vt 0.0000 0.0417
vt 0.0000 -0.0417
vt 0.1158 -0.0417
vt 0.1158 0.0000
vt 0.0000 0.0000
vt 0.0000 -0.0834
vt 0.1158 -0.0834
vt 0.0000 -0.1251
vt 0.1158 -0.1251
vt 0.0000 -0.1668
vt 0.1158 -0.1668
vt 0.0000 0.1668
vt 0.1158 0.1668
vt 0.1158 0.2085
vt 0.0000 0.2085
vt 0.0000 0.1251
vt 0.1158 0.1251
vt 0.0000 0.0834
vt 0.1158 0.0834
vt 0.0000 0.0417
vt 0.1158 0.0417
vt 0.0000 0.0000
vt 0.8238 0.0417
vt 0.0000 0.0417
vt 0.0000 0.0000
vt 0.8238 0.0417
vt 0.0000 0.0000
vt 0.8238 0.0417
vt 0.0000 0.0417
vt 0.0000 0.0000
vt 0.8238 0.0417
vt 0.0000 0.0417
vt 0.8238 0.0000
vt 0.8238 0.0417
vt 0.0000 0.0417
vt 0.8238 0.0834
vt 0.0000 0.0834
vt 0.8238 0.1251
vt 0.0000 0.1251
vt 0.8238 0.1668
vt 0.0000 0.1668
vt 0.8238 0.2085
vt 0.0000 0.2085
vt 0.0000 -0.1668
vt 0.8238 -0.1668
vt 0.8238 -0.1251
vt 0.0000 -0.1251
vt -0.3305 0.0000
vt -0.1652 0.0000
vt -0.1652 0.0417
vt -0.3305 0.0417
vt 0.0000 0.0000
vt 0.1652 0.0000
vt 0.1652 0.0417
vt 0.3305 0.0000
vt 0.3305 0.0417
vt 0.4957 0.0000
vt 0.4957 0.0417
vt 0.6609 0.0000
vt 0.6609 0.0417
vt 0.8262 0.0000
vt 0.8262 0.0417
vt -0.6609 0.0000
vt -0.4957 0.0000
vt -0.4957 0.0417
vt -0.6609 0.0417
vn 0.0116 -0.9998 -0.0139
vn 0.0178 -0.9998 -0.0031
vn 0.0157 -0.9998 0.0091
vn -0.0062 -0.9998 0.0170
vn 0.0062 -0.9998 0.0170
vn 0.0448 0.9987 -0.0259
vn 0.0509 0.9987 0.0090
vn 0.0332 0.9987 0.0396
vn 0.0000 0.9987 0.0517
vn 0.0000 -0.9998 -0.0181
vn -0.0116 -0.9998 -0.0139
vn -0.0178 -0.9998 -0.0031
vn -0.0157 -0.9998 0.0091
vn -0.0177 0.9987 -0.0486
vn 0.0177 0.9987 -0.0486
vn -0.0448 0.9987 -0.0259
vn -0.0509 0.9987 0.0090
vn -0.0332 0.9987 0.0396
vn 0.0000 0.9998 0.0190
vn 0.0122 -0.9998 0.0145
vn -0.0187 0.9998 0.0033
vn 0.0164 0.9998 -0.0095
vn -0.0065 -0.9998 -0.0178
vn -0.0122 -0.9998 0.0145
vn 0.0065 -0.9998 -0.0178
vn -0.0065 0.9998 -0.0178
vn 0.0122 0.9998 0.0145
vn 0.0164 -0.9998 -0.0095
vn -0.0187 -0.9998 0.0033
vn 0.0187 0.9998 0.0033
vn -0.0164 0.9998 -0.0095
vn 0.0000 -0.9998 0.0190
vn 0.0065 0.9998 -0.0178
vn -0.0122 0.9998 0.0145
vn 0.0187 -0.9998 0.0033
vn -0.0164 -0.9998 -0.0095
vn 0.0000 -1.0000 0.0000
vn 0.0000 -0.9995 -0.0297
vn 0.0191 -0.9995 -0.0227
vn 0.0000 1.0000 0.0000
vn -0.0067 0.9999 0.0080
vn 0.0000 0.9999 0.0104
vn -0.0102 0.9999 0.0018
vn -0.0090 0.9999 -0.0052
vn 0.6633 0.6429 0.3829
vn 0.7543 0.6429 -0.1330
vn 0.0292 -0.9995 -0.0052
vn 0.0257 -0.9995 0.0148
vn 0.0101 -0.9995 0.0279
vn -0.0035 0.9999 -0.0098
vn 0.0067 0.9999 0.0080
vn 0.0000 0.6429 -0.7659
vn -0.4923 0.6429 -0.5867
vn -0.0101 -0.9995 0.0279
vn 0.0035 0.9999 -0.0098
vn 0.0090 0.9999 -0.0052
vn 0.0102 0.9999 0.0018
vn -0.7543 0.6429 -0.1330
vn -0.6633 0.6429 0.3829
vn -0.0257 -0.9995 0.0148
vn -0.0292 -0.9995 -0.0052
vn 0.2619 0.6429 0.7197
vn -0.0191 -0.9995 -0.0227
vn 0.2677 -0.6222 0.7356
vn -0.2677 -0.6222 0.7356
vn 0.5032 -0.6222 -0.5997
vn 0.7709 -0.6222 -0.1359
vn -0.6779 -0.6222 0.3914
vn 0.6779 -0.6222 0.3914
vn -0.5032 -0.6222 -0.5997
vn 0.0000 -0.6222 -0.7828
vn -0.4072 0.7737 -0.4853
vn -0.3975 -0.7859 -0.4737
vn 0.0000 -0.7859 -0.6183
vn 0.0000 0.7737 -0.6335
vn -0.6238 0.7737 -0.1100
vn -0.6089 -0.7859 -0.1074
vn -0.5486 0.7737 0.3167
vn -0.5355 -0.7859 0.3092
vn -0.2167 0.7737 0.5953
vn -0.2115 -0.7859 0.5810
vn 0.2167 0.7737 0.5953
vn 0.2115 -0.7859 0.5810
vn 0.5486 0.7737 0.3167
vn 0.5355 -0.7859 0.3092
vn 0.6238 0.7737 -0.1100
vn 0.6089 -0.7859 -0.1074
vn 0.0000 0.7859 -0.6183
vn 0.0000 -0.7992 -0.6010
vn 0.3863 -0.7992 -0.4604
vn 0.3975 0.7859 -0.4737
vn 0.4072 0.7737 -0.4853
vn 0.3975 -0.7859 -0.4737
vn 0.0000 -0.6429 -0.7659
vn 0.4923 0.6429 -0.5867
vn 0.4923 -0.6429 -0.5867
vn 0.7543 -0.6429 -0.1330
vn 0.6633 -0.6429 0.3829
vn 0.2619 -0.6429 0.7197
vn -0.2619 0.6429 0.7197
vn -0.2619 -0.6429 0.7197
vn -0.6633 -0.6429 0.3829
vn -0.7543 -0.6429 -0.1330
vn -0.4923 -0.6429 -0.5867
vn -0.5032 0.6222 -0.5997
vn 0.0000 0.6222 -0.7828
vn -0.7709 -0.6222 -0.1359
vn -0.7709 0.6222 -0.1359
vn -0.6779 0.6222 0.3914
vn -0.2677 0.6222 0.7356
vn 0.2677 0.6222 0.7356
vn 0.6779 0.6222 0.3914
vn 0.7709 0.6222 -0.1359
vn 0.5032 0.6222 -0.5997
vn 0.5918 -0.7992 -0.1043
vn 0.6089 0.7859 -0.1074
vn 0.5205 -0.7992 0.3005
vn 0.5355 0.7859 0.3092
vn 0.2055 -0.7992 0.5647
vn 0.2115 0.7859 0.5810
vn -0.2055 -0.7992 0.5647
vn -0.2115 0.7859 0.5810
vn -0.5205 -0.7992 0.3005
vn -0.5355 0.7859 0.3092
vn -0.5918 -0.7992 -0.1043
vn -0.6089 0.7859 -0.1074
vn -0.3863 -0.7992 -0.4604
vn -0.3975 0.7859 -0.4737
vn 0.0000 0.6320 -0.7749
vn 0.4981 0.6320 -0.5936
vn 0.4981 -0.6320 -0.5936
vn 0.0000 -0.6320 -0.7749
vn 0.7632 0.6320 -0.1346
vn 0.7632 -0.6320 -0.1346
vn 0.6711 0.6320 0.3875
vn 0.6711 -0.6320 0.3875
vn 0.2650 0.6320 0.7282
vn 0.2650 -0.6320 0.7282
vn -0.2650 0.6320 0.7282
vn -0.2650 -0.6320 0.7282
vn -0.6711 0.6320 0.3875
vn -0.6711 -0.6320 0.3875
vn -0.7632 0.6320 -0.1346
vn -0.7632 -0.6320 -0.1346
vn -0.4981 0.6320 -0.5936
vn -0.4981 -0.6320 -0.5936
usemtl track
s off
f 36/1/1 35/2/1 53/3/1 54/4/1
f 37/5/2 36/6/2 54/7/2 55/8/2
f 38/9/3 37/10/3 55/11/3 56/12/3
f 31/13/4 30/14/4 41/15/4 49/16/4
f 30/17/5 38/18/5 56/19/5 41/20/5
f 22/21/6 23/22/6 61/23/6 59/24/6
f 23/25/7 24/26/7 63/27/7 61/28/7
f 24/29/8 25/30/8 65/31/8 63/32/8
f 25/33/9 26/34/9 67/35/9 65/36/9
f 35/37/10 34/38/10 52/39/10 53/40/10
f 34/41/11 33/42/11 51/43/11 52/44/11
f 33/45/12 32/46/12 50/47/12 51/48/12
f 32/49/13 31/50/13 49/51/13 50/52/13
f 29/53/14 21/54/14 74/55/14 73/56/14
f 21/57/15 22/58/15 59/59/15 74/60/15
f 28/61/16 29/62/16 73/63/16 71/64/16
f 27/65/17 28/66/17 71/67/17 69/68/17
f 26/69/18 27/70/18 69/71/18 67/72/18
f 90/73/19 92/74/19 103/75/19 75/76/19
f 91/77/20 89/78/20 76/79/20 102/80/20
f 94/81/21 96/82/21 107/83/21 105/84/21
f 84/85/22 86/86/22 79/87/22 81/88/22
f 100/89/23 99/90/23 110/91/23 83/92/23
f 95/93/24 93/94/24 104/95/24 106/96/24
f 85/97/25 100/98/25 83/99/25 80/100/25
f 98/101/26 101/102/26 82/103/26 109/104/26
f 88/105/27 90/106/27 75/107/27 77/108/27
f 87/109/28 85/110/28 80/111/28 78/112/28
f 97/113/29 95/114/29 106/115/29 108/116/29
f 86/117/30 88/118/30 77/119/30 79/120/30
f 96/121/31 98/122/31 109/123/31 107/124/31
f 93/125/32 91/126/32 102/127/32 104/128/32
f 101/129/33 84/130/33 81/131/33 82/132/33
f 92/133/34 94/134/34 105/135/34 103/136/34
f 89/137/35 87/138/35 78/139/35 76/140/35
f 99/141/36 97/142/36 108/143/36 110/144/36
s 1
f 1/145/37 3/146/38 5/147/39
f 2/148/40 6/149/41 4/150/42
f 8/151/43 10/152/44 43/153/45 42/154/46
f 1/145/37 5/155/39 7/156/47
f 2/148/40 8/157/43 6/158/41
f 1/145/37 7/159/47 9/160/48
f 2/148/40 10/152/44 8/161/43
f 1/145/37 9/162/48 11/163/49
f 2/148/40 12/164/50 10/165/44
f 20/166/51 4/167/42 40/168/52 48/169/53
f 1/145/37 11/170/49 13/171/54
f 2/148/40 14/172/55 12/173/50
f 16/174/56 18/175/57 47/176/58 46/177/59
f 1/145/37 13/178/54 15/179/60
f 2/148/40 16/180/56 14/181/55
f 1/145/37 15/182/60 17/183/61
f 2/148/40 18/175/57 16/184/56
f 10/185/44 12/164/50 44/186/62 43/187/45
f 1/145/37 17/188/61 19/189/63
f 2/148/40 20/190/51 18/191/57
f 1/145/37 19/192/63 3/193/38
f 2/148/40 4/167/42 20/194/51
f 13/195/54 11/170/49 64/196/64 66/197/65
f 7/198/47 5/155/39 58/199/66 60/200/67
f 15/201/60 13/178/54 66/202/65 68/203/68
f 9/204/48 7/159/47 60/205/67 62/206/69
f 3/207/38 19/192/63 72/208/70 57/209/71
f 29/210/72 99/211/73 100/212/74 21/213/75
f 28/61/76 97/214/77 99/211/73 29/210/72
f 27/215/78 95/216/79 97/214/77 28/61/76
f 26/217/80 93/218/81 95/216/79 27/215/78
f 25/219/82 91/220/83 93/218/81 26/217/80
f 24/221/84 89/222/85 91/220/83 25/219/82
f 23/223/86 87/224/87 89/225/85 24/226/84
f 101/227/88 30/228/89 31/229/90 84/230/91
f 22/231/92 85/232/93 87/224/87 23/223/86
f 41/233/94 40/234/52 39/235/95 49/236/96
f 49/236/96 39/235/95 42/237/46 50/238/97
f 50/238/97 42/237/46 43/239/45 51/48/98
f 51/48/98 43/239/45 44/240/62 52/241/99
f 52/241/99 44/240/62 45/242/100 53/243/101
f 53/243/101 45/242/100 46/244/59 54/245/102
f 54/245/102 46/244/59 47/246/58 55/247/103
f 55/248/103 47/249/58 48/250/53 56/251/104
f 56/251/104 48/250/53 40/234/52 41/233/94
f 14/252/55 16/180/56 46/253/59 45/254/100
f 6/255/41 8/157/43 42/256/46 39/257/95
f 12/258/50 14/172/55 45/259/100 44/260/62
f 18/261/57 20/190/51 48/262/53 47/263/58
f 4/264/42 6/149/41 39/265/95 40/266/52
f 72/267/70 73/268/105 74/269/106 57/270/71
f 70/271/107 71/272/108 73/268/105 72/267/70
f 68/273/68 69/274/109 71/272/108 70/271/107
f 66/275/65 67/276/110 69/274/109 68/273/68
f 64/277/64 65/278/111 67/279/110 66/280/65
f 62/281/69 63/282/112 65/278/111 64/277/64
f 60/283/67 61/284/113 63/282/112 62/281/69
f 58/285/66 59/286/114 61/284/113 60/283/67
f 57/270/71 74/269/106 59/286/114 58/285/66
f 19/287/63 17/188/61 70/288/107 72/289/70
f 5/290/39 3/146/38 57/291/71 58/285/66
f 11/292/49 9/162/48 62/293/69 64/294/64
f 17/295/61 15/182/60 68/296/68 70/297/107
f 84/230/91 31/229/90 32/298/115 86/117/116
f 86/117/116 32/298/115 33/299/117 88/300/118
f 88/300/118 33/299/117 34/301/119 90/302/120
f 90/302/120 34/301/119 35/303/121 92/304/122
f 92/304/122 35/303/121 36/305/123 94/306/124
f 94/306/124 36/305/123 37/307/125 96/308/126
f 96/309/126 37/310/125 38/311/127 98/312/128
f 98/312/128 38/311/127 30/228/89 101/227/88
f 82/313/129 81/314/130 80/315/131 83/316/132
f 21/213/75 100/212/74 85/232/93 22/231/92
f 81/314/130 79/317/133 78/112/134 80/315/131
f 79/317/133 77/318/135 76/319/136 78/112/134
f 77/318/135 75/320/137 102/321/138 76/319/136
f 75/320/137 103/322/139 104/323/140 102/321/138
f 103/322/139 105/324/141 106/325/142 104/323/140
f 105/324/141 107/326/143 108/327/144 106/325/142
f 107/328/143 109/329/145 110/330/146 108/331/144
f 109/329/145 82/313/129 83/316/132 110/330/146
