# Blender v2.78 (sub 0) OBJ File: 'ghost-train-build-kit.blend'
# www.blender.org
mtllib ceiling-set-room-2.mtl
o ceiling-set-room-2_Plane.012
v 4.000000 4.000000 4.000000
v 4.000000 4.000000 0.000000
v 8.000000 4.000000 -0.000000
v 24.000000 4.000000 -4.000001
v 8.000000 4.000000 4.000000
v 12.000000 4.000000 4.000000
v 20.000000 4.000000 -4.000000
v 12.000000 4.000000 0.000000
v 16.000000 4.000000 -0.000000
v 20.000000 4.000000 -0.000000
v 16.000000 4.000000 3.999999
v 24.000000 4.000000 -0.000001
v 24.000000 4.000000 3.999999
v 20.000000 4.000000 3.999999
v 20.000000 4.000000 -8.000001
v 24.000000 4.000000 -8.000001
v 20.000000 4.000000 -12.000001
v 24.000000 4.000000 -12.000001
v 28.000000 4.000000 -8.000001
v 32.000000 4.000000 -8.000001
v 28.000000 4.000000 -12.000001
v 32.000000 4.000000 -12.000001
v 0.000000 4.000000 4.000000
v 0.000000 4.000000 0.000000
vt 0.0000 0.0000
vt 0.2500 0.0000
vt 0.2500 0.2500
vt 0.0000 0.2500
vt 0.0000 0.0000
vt 0.2500 0.0000
vt 0.2500 0.2500
vt 0.0000 0.2500
vt 0.0000 0.0000
vt 0.2500 0.0000
vt 0.2500 0.2500
vt 0.0000 0.2500
vt 0.0000 0.0000
vt 0.2500 0.0000
vt 0.2500 0.2500
vt 0.0000 0.2500
vt 0.0000 0.0000
vt 0.2500 0.0000
vt 0.2500 0.2500
vt 0.0000 0.2500
vt 0.0000 0.0000
vt 0.2500 0.0000
vt 0.2500 0.2500
vt 0.0000 0.2500
vt 0.0000 0.0000
vt 0.2500 0.0000
vt 0.2500 0.2500
vt 0.0000 0.2500
vt 0.0000 0.0000
vt 0.2500 0.0000
vt 0.2500 0.2500
vt 0.0000 0.2500
vt 0.0000 0.0000
vt 0.2500 0.0000
vt 0.2500 0.2500
vt 0.0000 0.2500
vt 0.0000 0.0000
vt 0.2500 0.0000
vt 0.2500 0.2500
vt 0.0000 0.2500
vt 0.0000 0.0000
vt 0.2500 0.0000
vt 0.2500 0.2500
vt 0.0000 0.2500
vn 0.0000 -1.0000 0.0000
usemtl room-atlas
s off
f 1/1/1 2/2/1 3/3/1 5/4/1
f 10/5/1 7/6/1 4/7/1 12/8/1
f 5/9/1 3/10/1 8/11/1 6/12/1
f 7/13/1 15/14/1 16/15/1 4/16/1
f 6/17/1 8/18/1 9/19/1 11/20/1
f 11/21/1 9/22/1 10/23/1 14/24/1
f 14/25/1 10/26/1 12/27/1 13/28/1
f 15/29/1 17/30/1 18/31/1 16/32/1
f 16/33/1 18/34/1 21/35/1 19/36/1
f 19/37/1 21/38/1 22/39/1 20/40/1
f 23/41/1 24/42/1 2/43/1 1/44/1
