# Blender v2.78 (sub 0) OBJ File: 'ghost-train-build-kit.blend'
# www.blender.org
mtllib ceiling-set-room-1.mtl
o ceiling-set-room-1_Plane.011
v 0.000000 4.000000 4.000000
v 4.000000 4.000000 4.000000
v 0.000000 4.000000 -0.000000
v 4.000000 4.000000 -0.000000
v 12.000000 4.000000 8.000000
v 12.000001 4.000000 11.999999
v 16.000000 4.000000 8.000000
v 16.000000 4.000000 4.000000
v 8.000000 4.000000 4.000000
v 12.000000 4.000000 4.000000
v 8.000000 4.000000 0.000000
v 12.000000 4.000000 -0.000000
v 16.000000 4.000000 -0.000000
v 16.000000 4.000000 11.999999
v 16.000000 4.000000 15.999999
v 12.000001 4.000000 15.999999
vt 0.0000 0.0000
vt 0.2500 0.0000
vt 0.2500 0.2500
vt 0.0000 0.2500
vt 0.0000 0.0000
vt 0.2500 0.0000
vt 0.2500 0.2500
vt 0.0000 0.2500
vt 0.0000 0.0000
vt 0.2500 0.0000
vt 0.2500 0.2500
vt 0.0000 0.2500
vt 0.0000 0.0000
vt 0.2500 0.0000
vt 0.2500 0.2500
vt 0.0000 0.2500
vt 0.0000 0.0000
vt 0.2500 0.0000
vt 0.2500 0.2500
vt 0.0000 0.2500
vt 0.0000 0.0000
vt 0.2500 0.0000
vt 0.2500 0.2500
vt 0.0000 0.2500
vt 0.0000 0.0000
vt 0.2500 0.0000
vt 0.2500 0.2500
vt 0.0000 0.2500
vn 0.0000 -1.0000 0.0000
usemtl room-atlas
s off
f 1/1/1 3/2/1 4/3/1 2/4/1
f 6/5/1 5/6/1 7/7/1 14/8/1
f 2/9/1 4/10/1 11/11/1 9/12/1
f 5/13/1 10/14/1 8/15/1 7/16/1
f 9/17/1 11/18/1 12/19/1 10/20/1
f 10/21/1 12/22/1 13/23/1 8/24/1
f 16/25/1 6/26/1 14/27/1 15/28/1
