# Blender v2.78 (sub 0) OBJ File: 'ghost-train-build-kit.blend'
# www.blender.org
mtllib floor-set-room-4.mtl
o floor-set-room-4_Plane.009
v 4.000002 0.000000 4.000000
v 0.000002 0.000000 0.000000
v 4.000002 0.000000 -0.000000
v 0.000002 0.000000 4.000000
v 4.000002 0.000000 12.000000
v 0.000002 0.000000 8.000000
v 4.000002 0.000000 8.000000
v 4.000002 0.000000 16.000000
v 0.000002 0.000000 12.000000
v 0.000002 0.000000 16.000000
v 0.000002 0.000000 20.000000
v 4.000002 0.000000 20.000000
v 0.000002 0.000000 28.000000
v 4.000002 0.000000 28.000000
v 0.000002 0.000000 24.000000
v 4.000001 0.000000 24.000000
vt 0.0000 0.2500
vt 0.0000 0.5000
vt 0.2500 0.5000
vt 0.2500 0.2500
vt 0.0000 0.2500
vt 0.0000 0.5000
vt 0.2500 0.5000
vt 0.2500 0.2500
vt 0.0000 0.2500
vt 0.0000 0.5000
vt 0.2500 0.5000
vt 0.2500 0.2500
vt 0.0000 0.2500
vt 0.0000 0.5000
vt 0.2500 0.5000
vt 0.2500 0.2500
vt 0.0000 0.2500
vt 0.0000 0.5000
vt 0.2500 0.5000
vt 0.2500 0.2500
vt 0.0000 0.2500
vt 0.0000 0.5000
vt 0.2500 0.5000
vt 0.2500 0.2500
vt 0.0000 0.2500
vt 0.0000 0.5000
vt 0.2500 0.5000
vt 0.2500 0.2500
vn 0.0000 1.0000 0.0000
usemtl room-atlas
s off
f 4/1/1 1/2/1 3/3/1 2/4/1
f 6/5/1 7/6/1 1/7/1 4/8/1
f 9/9/1 5/10/1 7/11/1 6/12/1
f 10/13/1 8/14/1 5/15/1 9/16/1
f 11/17/1 12/18/1 8/19/1 10/20/1
f 15/21/1 16/22/1 12/23/1 11/24/1
f 13/25/1 14/26/1 16/27/1 15/28/1
