# Blender v2.78 (sub 0) OBJ File: 'ghost-train-build-kit.blend'
# www.blender.org
mtllib floor-set-room-2.mtl
o floor-set-room-2_Plane.005
v 4.000000 0.000000 4.000000
v 8.000000 0.000000 -0.000000
v 24.000000 0.000000 -4.000001
v 8.000000 0.000000 4.000000
v 12.000000 0.000000 4.000000
v 12.000000 0.000000 -0.000000
v 20.000000 0.000000 -4.000000
v 16.000000 0.000000 -0.000000
v 16.000000 0.000000 3.999999
v 24.000000 0.000000 -0.000001
v 20.000000 0.000000 -0.000001
v 24.000000 0.000000 3.999999
v 20.000000 0.000000 3.999999
v 20.000000 0.000000 -8.000001
v 24.000000 0.000000 -8.000001
v 20.000000 0.000000 -12.000001
v 24.000000 0.000000 -12.000001
v 28.000000 0.000000 -8.000001
v 32.000000 0.000000 -8.000001
v 28.000000 0.000000 -12.000001
v 32.000000 0.000000 -12.000001
v 0.000000 0.000000 4.000000
v 0.000000 0.000000 0.000000
v 4.000000 0.000000 -0.000000
vt 0.0000 0.2500
vt 0.0000 0.5000
vt 0.2500 0.5000
vt 0.2500 0.2500
vt 0.0000 0.2500
vt 0.0000 0.5000
vt 0.2500 0.5000
vt 0.2500 0.2500
vt 0.0000 0.2500
vt 0.0000 0.5000
vt 0.2500 0.5000
vt 0.2500 0.2500
vt 0.0000 0.2500
vt 0.0000 0.5000
vt 0.2500 0.5000
vt 0.2500 0.2500
vt 0.0000 0.2500
vt 0.0000 0.5000
vt 0.2500 0.5000
vt 0.2500 0.2500
vt 0.0000 0.2500
vt 0.0000 0.5000
vt 0.2500 0.5000
vt 0.2500 0.2500
vt 0.0000 0.2500
vt 0.0000 0.5000
vt 0.2500 0.5000
vt 0.2500 0.2500
vt 0.0000 0.2500
vt 0.0000 0.5000
vt 0.2500 0.5000
vt 0.2500 0.2500
vt 0.0000 0.2500
vt 0.0000 0.5000
vt 0.2500 0.5000
vt 0.2500 0.2500
vt 0.0000 0.2500
vt 0.0000 0.5000
vt 0.2500 0.5000
vt 0.2500 0.2500
vt 0.0000 0.2500
vt 0.0000 0.5000
vt 0.2500 0.5000
vt 0.2500 0.2500
vn 0.0000 1.0000 0.0000
usemtl room-atlas
s off
f 1/1/1 4/2/1 2/3/1 24/4/1
f 11/5/1 10/6/1 3/7/1 7/8/1
f 4/9/1 5/10/1 6/11/1 2/12/1
f 7/13/1 3/14/1 15/15/1 14/16/1
f 5/17/1 9/18/1 8/19/1 6/20/1
f 9/21/1 13/22/1 11/23/1 8/24/1
f 13/25/1 12/26/1 10/27/1 11/28/1
f 14/29/1 15/30/1 17/31/1 16/32/1
f 15/33/1 18/34/1 20/35/1 17/36/1
f 18/37/1 19/38/1 21/39/1 20/40/1
f 22/41/1 1/42/1 24/43/1 23/44/1
